<svg xmlns="http://www.w3.org/2000/svg" xmlns:xlink="http://www.w3.org/1999/xlink" width="2300px" height="2300px" viewBox="0 0 2300 2300" version="1.1">
 <!-- Generated by Pixelmator Pro 1.1.5 -->
 <g id="new-group">
  <path id="path" d="M344.904 1908.996 L2129.389 1908.996" fill="none" stroke="#ffffff" stroke-width="6.427" stroke-opacity="1" stroke-linejoin="round" style="stroke-dasharray: 1785, 1787; stroke-dashoffset: 0;"/>
  <g id="phone">
   <path id="path-1" d="M852.313 841.727 C801.935 841.727 761.094 882.567 761.094 932.946 L761.094 1817.777 C761.094 1868.156 801.935 1908.996 852.313 1908.996 L1360.863 1908.996 C1411.242 1908.996 1452.083 1868.156 1452.083 1817.777 L1452.083 932.946 C1452.083 882.567 1411.242 841.727 1360.863 841.727 Z" fill="none" stroke="#ffffff" stroke-width="6.841" stroke-opacity="1" stroke-linejoin="round" style="stroke-dasharray: 3360, 3362; stroke-dashoffset: 0;"/>
   <path id="path-2" d="M823.807 1720.856 L1389.369 1720.856 1389.369 964.873 823.807 964.873 Z" fill="none" stroke="#ffffff" stroke-width="6.841" stroke-opacity="1" stroke-linejoin="round" style="stroke-dasharray: 2644, 2646; stroke-dashoffset: 0;"/>
   <path id="path-3" d="M1162.46 1613.673 C1162.46 1582.816 1137.445 1557.801 1106.588 1557.801 1075.731 1557.801 1050.716 1582.816 1050.716 1613.673 1050.716 1644.53 1075.731 1669.545 1106.588 1669.545 1137.445 1669.545 1162.46 1644.53 1162.46 1613.673 Z" fill="none" stroke="#ffffff" stroke-width="6.841" stroke-opacity="1" stroke-linejoin="round" style="stroke-dasharray: 352, 354; stroke-dashoffset: 0;"/>
   <path id="path-4" d="M823.807 1528.154 L1389.369 1528.154" fill="none" stroke="#ffffff" stroke-width="6.427" stroke-opacity="1" stroke-linejoin="round" style="stroke-dasharray: 566, 568; stroke-dashoffset: 0;"/>
   <path id="path-5" d="M1050.716 1815.496 L1160.18 1815.496" fill="none" stroke="#ffffff" stroke-width="6.427" stroke-opacity="1" stroke-linejoin="round" style="stroke-dasharray: 110, 112; stroke-dashoffset: 0;"/>
   <path id="path-6" d="M823.807 1528.154 L1382.528 969.434" fill="none" stroke="#ffffff" stroke-width="6.841" stroke-opacity="1" stroke-linejoin="round" style="stroke-dasharray: 791, 793; stroke-dashoffset: 0;"/>
   <path id="path-7" d="M1005.106 907.861 L1208.07 907.861" fill="none" stroke="#ffffff" stroke-width="6.427" stroke-opacity="1" stroke-linejoin="round" style="stroke-dasharray: 203, 205; stroke-dashoffset: 0;"/>
  </g>
  <g id="legs">
   <path id="path-8" d="M485.154 1259.056 L447.526 1856.545 623.124 1858.826 658.472 1350.276 682.417 1350.276 682.417 1853.124 767.935 1853.124" fill="none" stroke="#ffffff" stroke-width="6.841" stroke-opacity="1" stroke-linejoin="round" style="stroke-dasharray: 1897, 1899; stroke-dashoffset: 0;"/>
   <path id="path-9" d="M497.697 1857.685 L450.947 1908.996 575.234 1908.996 575.234 1858.826" fill="none" stroke="#ffffff" stroke-width="6.841" stroke-opacity="1" stroke-linejoin="round" style="stroke-dasharray: 244, 246; stroke-dashoffset: 0;"/>
   <path id="path-10" d="M722.325 1857.685 L722.325 1908.996 844.332 1908.996" fill="none" stroke="#ffffff" stroke-width="6.841" stroke-opacity="1" stroke-linejoin="round" style="stroke-dasharray: 174, 176; stroke-dashoffset: 0;"/>
   <path id="path-11" d="M608.301 1223.709 L761.094 1223.709" fill="none" stroke="#ffffff" stroke-width="6.427" stroke-opacity="1" stroke-linejoin="round" style="stroke-dasharray: 153, 155; stroke-dashoffset: 0;"/>
  </g>
  <g id="body">
   <path id="path-12" d="M591.197 1204.325 L653.911 1272.739 642.508 1283.002 653.911 1295.544 590.057 1346.855 521.642 1259.056 503.398 1273.88" fill="none" stroke="#ffffff" stroke-width="6.841" stroke-opacity="1" stroke-linejoin="round" style="stroke-dasharray: 342, 344; stroke-dashoffset: 0;"/>
   <path id="path-13" d="M522.782 1257.916 L591.197 1204.325" fill="none" stroke="#ffffff" stroke-width="6.841" stroke-opacity="1" stroke-linejoin="round" style="stroke-dasharray: 87, 89; stroke-dashoffset: 0;"/>
   <path id="path-14" d="M577.514 1298.965 L603.74 1333.172" fill="none" stroke="#ffffff" stroke-width="6.841" stroke-opacity="1" stroke-linejoin="round" style="stroke-dasharray: 44, 46; stroke-dashoffset: 0;"/>
   <path id="path-15" d="M593.478 1287.563 L619.703 1319.489" fill="none" stroke="#ffffff" stroke-width="6.841" stroke-opacity="1" stroke-linejoin="round" style="stroke-dasharray: 42, 44; stroke-dashoffset: 0;"/>
   <path id="path-16" d="M608.301 1275.02 L634.526 1306.947" fill="none" stroke="#ffffff" stroke-width="6.841" stroke-opacity="1" stroke-linejoin="round" style="stroke-dasharray: 42, 44; stroke-dashoffset: 0;"/>
   <path id="path-17" d="M623.124 1263.617 L649.35 1295.544" fill="none" stroke="#ffffff" stroke-width="6.841" stroke-opacity="1" stroke-linejoin="round" style="stroke-dasharray: 42, 44; stroke-dashoffset: 0;"/>
   <path id="path-18" d="M628.825 694.637 C628.825 694.637 548.783 702.235 482.873 747.087 424.425 786.861 380.192 860.783 366.568 912.423 353.422 962.25 338.72 1047.404 366.569 1110.825 408.342 1205.955 503.397 1273.88 503.397 1273.88" fill="none" stroke="#ffffff" stroke-width="6.841" stroke-opacity="1" stroke-linejoin="round" style="stroke-dasharray: 780, 782; stroke-dashoffset: 0;"/>
   <path id="path-19" d="M491.995 943.208 C491.995 943.208 480.903 963.115 477.172 985.397 474.12 1003.628 477.753 1023.221 481.733 1036.708 500.472 1100.212 604.88 1195.203 604.88 1195.203" fill="none" stroke="#ffffff" stroke-width="6.841" stroke-opacity="1" stroke-linejoin="round" style="stroke-dasharray: 300, 302; stroke-dashoffset: 0;"/>
   <path id="path-20" d="M710.922 694.636 C710.922 694.636 708.824 707.26 700.661 717.44 693.422 726.466 680.615 733.17 672.154 733.404 663.358 733.647 651.745 726.35 643.648 717.44 634.143 706.981 628.825 694.636 628.825 694.636" fill="none" stroke="#ffffff" stroke-width="6.841" stroke-opacity="1" stroke-linejoin="round" style="stroke-dasharray: 120, 122; stroke-dashoffset: 0;"/>
   <path id="path-21" d="M712.063 694.637 C712.063 694.637 740.807 695.39 773.636 702.617 802.748 709.026 834.98 721.122 854.593 733.405 870.263 743.219 889.04 761.282 904.765 780.153 929.36 809.67 948.092 840.586 948.092 840.586" fill="none" stroke="#ffffff" stroke-width="6.841" stroke-opacity="1" stroke-linejoin="round" style="stroke-dasharray: 293, 295; stroke-dashoffset: 0;"/>
  </g>
  <g id="head">
   <path id="path-22" d="M629.965 626.22 L629.965 695.775" fill="none" stroke="#ffffff" stroke-width="6.427" stroke-opacity="1" stroke-linejoin="round" style="stroke-dasharray: 70, 72; stroke-dashoffset: 0;"/>
   <path id="path-23" d="M710.923 642.183 L710.923 695.775" fill="none" stroke="#ffffff" stroke-width="6.427" stroke-opacity="1" stroke-linejoin="round" style="stroke-dasharray: 54, 56; stroke-dashoffset: 0;"/>
   <path id="path-24" d="M629.965 589.737 C629.965 589.737 630.102 611.694 641.365 625.083 652.187 637.947 671.95 646.43 686.975 645.608 698.334 644.984 712.116 642.404 721.183 636.484 735.976 626.826 743.451 610.824 746.267 598.858 748.235 590.494 749.474 574.807 742.848 563.508 736.037 551.895 725.367 539.276 712.062 533.861 704.249 530.681 694.212 530.828 686.976 531.581 679.271 532.383 669.443 533.16 661.892 537.281 648.469 544.607 639.083 556.67 639.083 556.67" fill="none" stroke="#ffffff" stroke-width="6.841" stroke-opacity="1" stroke-linejoin="round" style="stroke-dasharray: 333, 335; stroke-dashoffset: 0;"/>
   <path id="path-25" d="M639.087 556.666 C639.087 556.666 630.671 550.953 621.983 552.104 613.636 553.21 605.031 561.057 603.739 566.928 602.52 572.472 607.287 583.196 614.002 587.452 620.991 591.881 629.965 589.733 629.965 589.733" fill="none" stroke="#ffffff" stroke-width="6.841" stroke-opacity="1" stroke-linejoin="round" style="stroke-dasharray: 84, 86; stroke-dashoffset: 0;"/>
   <path id="path-26" d="M732.582 547.545 C732.582 547.545 745.541 538.15 751.972 525.879 757.449 515.425 756.814 502.696 754.252 493.952 749.313 477.095 711.798 475.544 707.498 475.709 690.703 476.355 671.099 478.07 655.048 484.831 636.948 492.454 623.023 505.46 616.277 511.057 599.913 524.633 588.387 556.65 596.893 584.033 603.857 606.437 629.96 626.221 629.96 626.221" fill="none" stroke="#ffffff" stroke-width="6.841" stroke-opacity="1" stroke-linejoin="round" style="stroke-dasharray: 350, 352; stroke-dashoffset: 0;"/>
   <path id="path-27" d="M624.264 570.348 C624.264 570.348 630.182 569.766 632.246 571.488 634.091 573.028 634.526 578.33 634.526 578.33" fill="none" stroke="#ffffff" stroke-width="6.841" stroke-opacity="1" stroke-linejoin="round" style="stroke-dasharray: 16, 18; stroke-dashoffset: 0;"/>
  </g>
  <g id="hand2">
   <path id="path-28" d="M1009.667 858.83 L1091.765 858.83 1091.765 794.976 1009.667 794.976 Z" fill="none" stroke="#ffffff" stroke-width="6.841" stroke-opacity="1" stroke-linejoin="round" style="stroke-dasharray: 292, 294; stroke-dashoffset: 0;"/>
   <path id="path-29" d="M1027.911 814.361 L1027.911 858.83" fill="none" stroke="#ffffff" stroke-width="6.427" stroke-opacity="1" stroke-linejoin="round" style="stroke-dasharray: 45, 47; stroke-dashoffset: 0;"/>
   <path id="path-30" d="M1049.576 814.361 L1049.576 814.361 1049.576 854.269" fill="none" stroke="#ffffff" stroke-width="6.427" stroke-opacity="1" stroke-linejoin="round" style="stroke-dasharray: 40, 42; stroke-dashoffset: 0;"/>
   <path id="path-31" d="M1070.1 814.361 L1070.1 814.361 1070.1 854.269" fill="none" stroke="#ffffff" stroke-width="6.427" stroke-opacity="1" stroke-linejoin="round" style="stroke-dasharray: 40, 42; stroke-dashoffset: 0;"/>
  </g>
  <g id="flower-left">
   <path id="path-32" d="M152.201 1116.526 C152.201 1116.526 97.592 1201.849 102.03 1248.794 106.609 1297.208 183.301 1326.939 209.213 1382.203 225.797 1417.572 173.048 1465.491 192.11 1501.929 216.128 1547.841 278.888 1579.639 309.556 1621.655 337.719 1660.239 283.842 1745.762 307.276 1779.008 364.647 1860.405 484.012 1870.228 484.012 1870.228" fill="none" stroke="#ffffff" stroke-width="6.841" stroke-opacity="1" stroke-linejoin="round" style="stroke-dasharray: 977, 979; stroke-dashoffset: 0;"/>
   <path id="path-33" d="M471.47 1457.459 C471.47 1457.459 472.548 1396.949 437.264 1362.819 413.741 1340.065 356.177 1351.994 336.922 1317.21 308.65 1266.138 328.381 1177.231 293.592 1150.735 255.454 1121.689 154.483 1114.247 154.483 1114.247" fill="none" stroke="#ffffff" stroke-width="6.841" stroke-opacity="1" stroke-linejoin="round" style="stroke-dasharray: 537, 539; stroke-dashoffset: 0;"/>
   <path id="path-34" d="M218.337 1243.093 L457.788 1708.313" fill="none" stroke="#ffffff" stroke-width="6.841" stroke-opacity="1" stroke-linejoin="round" style="stroke-dasharray: 524, 526; stroke-dashoffset: 0;"/>
   <path id="path-35" d="M333.502 1346.855 L316.398 1430.093" fill="none" stroke="#ffffff" stroke-width="6.841" stroke-opacity="1" stroke-linejoin="round" style="stroke-dasharray: 85, 87; stroke-dashoffset: 0;"/>
   <path id="path-36" d="M251.404 1464.301 L354.026 1512.191" fill="none" stroke="#ffffff" stroke-width="6.841" stroke-opacity="1" stroke-linejoin="round" style="stroke-dasharray: 114, 116; stroke-dashoffset: 0;"/>
  </g>
  <g id="flower--right">
   <path id="path-37" d="M2176.137 910.142 C2176.137 910.142 2058.693 966.025 1956.071 1064.074 1878.655 1138.041 1817.302 1245.599 1778.192 1317.21 1691.086 1476.701 1656.186 1848.564 1656.186 1848.564" fill="none" stroke="#ffffff" stroke-width="6.841" stroke-opacity="1" stroke-linejoin="round" style="stroke-dasharray: 1128, 1130; stroke-dashoffset: 0;"/>
   <path id="path-38" d="M2176.131 910.139 C2176.131 910.139 2185.183 1043.618 2156.755 1184.94 2138.579 1275.295 2092.666 1370.083 2059.833 1431.234 1968.533 1601.28 1658.467 1848.563 1658.467 1848.563" fill="none" stroke="#ffffff" stroke-width="6.841" stroke-opacity="1" stroke-linejoin="round" style="stroke-dasharray: 1124, 1126; stroke-dashoffset: 0;"/>
   <path id="path-39" d="M2173.858 913.562 L1623.126 1909" fill="none" stroke="#ffffff" stroke-width="6.841" stroke-opacity="1" stroke-linejoin="round" style="stroke-dasharray: 1138, 1140; stroke-dashoffset: 0;"/>
   <path id="path-40" d="M2152.194 1198.623 L1951.51 1317.209" fill="none" stroke="#ffffff" stroke-width="6.841" stroke-opacity="1" stroke-linejoin="round" style="stroke-dasharray: 234, 236; stroke-dashoffset: 0;"/>
   <path id="path-41" d="M1848.89 1200.904 L1848.89 1200.904 1883.096 1436.935" fill="none" stroke="#ffffff" stroke-width="6.841" stroke-opacity="1" stroke-linejoin="round" style="stroke-dasharray: 239, 241; stroke-dashoffset: 0;"/>
  </g>
  <g id="lamp">
   <path id="path-42" d="M908.185 601.135 L981.161 601.135 981.161 568.068 908.185 568.068 Z" fill="none" stroke="#ffffff" stroke-width="6.841" stroke-opacity="1" stroke-linejoin="round" style="stroke-dasharray: 213, 215; stroke-dashoffset: 0;"/>
   <path id="path-43" d="M908.185 566.927 C908.185 566.927 906.953 545.118 899.061 527.021 891.479 509.633 876.03 491.811 878.536 471.15 880.426 455.579 886.996 438.851 899.063 427.818 912.67 415.375 932.437 409.578 944.669 409.578 956.172 409.578 975.204 411.791 989.142 423.257 1002.533 434.275 1011.025 454.228 1013.085 470.009 1015.648 489.648 1000.124 508.803 992.562 525.88 983.685 545.927 981.161 565.787 981.161 565.787" fill="none" stroke="#ffffff" stroke-width="6.841" stroke-opacity="1" stroke-linejoin="round" style="stroke-dasharray: 404, 406; stroke-dashoffset: 0;"/>
   <path id="path-44" d="M935.551 566.927 L921.868 475.708 969.759 475.708 958.356 566.927" fill="none" stroke="#ffffff" stroke-width="6.841" stroke-opacity="1" stroke-linejoin="round" style="stroke-dasharray: 233, 235; stroke-dashoffset: 0;"/>
   <path id="path-45" d="M945.814 384.488 L945.814 348" fill="none" stroke="#ffffff" stroke-width="6.841" stroke-opacity="1" stroke-linejoin="round" style="stroke-dasharray: 37, 39; stroke-dashoffset: 0;"/>
   <path id="path-46" d="M884.24 533.86 L856.874 562.366" fill="none" stroke="#ffffff" stroke-width="6.841" stroke-opacity="1" stroke-linejoin="round" style="stroke-dasharray: 40, 42; stroke-dashoffset: 0;"/>
   <path id="path-47" d="M859.111 472.285 L820.387 472.287" fill="none" stroke="#ffffff" stroke-width="6.427" stroke-opacity="1" stroke-linejoin="round" style="stroke-dasharray: 39, 41; stroke-dashoffset: 0;"/>
   <path id="path-48" d="M883.1 409.573 L858.015 384.488" fill="none" stroke="#ffffff" stroke-width="6.841" stroke-opacity="1" stroke-linejoin="round" style="stroke-dasharray: 36, 38; stroke-dashoffset: 0;"/>
   <path id="path-49" d="M1008.527 409.573 L1033.612 384.488" fill="none" stroke="#ffffff" stroke-width="6.841" stroke-opacity="1" stroke-linejoin="round" style="stroke-dasharray: 36, 38; stroke-dashoffset: 0;"/>
   <path id="path-50" d="M1033.613 472.287 L1071.241 472.287" fill="none" stroke="#ffffff" stroke-width="6.427" stroke-opacity="1" stroke-linejoin="round" style="stroke-dasharray: 38, 40; stroke-dashoffset: 0;"/>
   <path id="path-51" d="M1008.527 535 L1033.613 561.226" fill="none" stroke="#ffffff" stroke-width="6.841" stroke-opacity="1" stroke-linejoin="round" style="stroke-dasharray: 37, 39; stroke-dashoffset: 0;"/>
  </g>
  <g id="question">
   <defs>
    <path id="path-52" d="M1521.638 1130.209 C1521.638 1130.209 1568.785 1136.256 1621.979 1123.367 1673.087 1110.984 1729.683 1080.23 1759.949 1052.672 1784.872 1029.979 1816.472 988.302 1831.785 946.629 1851.274 893.591 1851.169 841.727 1851.169 841.727" style="stroke-dasharray: 494, 496; stroke-dashoffset: 0;"/>
   </defs>
   <defs>
    <path id="stroke-path" d="M1535.296 1131.022 L1545.155 1131.608 1548.96 1131.494" style="stroke-dasharray: 14, 16; stroke-dashoffset: 0;"/>
    <path id="stroke-path-1" d="M1562.637 1131.082 L1575.062 1130.709 1576.307 1130.578" style="stroke-dasharray: 14, 16; stroke-dashoffset: 0;"/>
    <path id="stroke-path-2" d="M1589.916 1129.154 L1592.912 1128.84 1603.436 1127.078" style="stroke-dasharray: 14, 16; stroke-dashoffset: 0;"/>
    <path id="stroke-path-3" d="M1616.86 1124.472 L1630.159 1121.252" style="stroke-dasharray: 14, 16; stroke-dashoffset: 0;"/>
    <path id="stroke-path-4" d="M1643.22 1117.184 L1651.098 1114.662 1656.139 1112.697" style="stroke-dasharray: 14, 16; stroke-dashoffset: 0;"/>
    <path id="stroke-path-5" d="M1668.888 1107.727 L1670.547 1107.08 1681.377 1102.144" style="stroke-dasharray: 14, 16; stroke-dashoffset: 0;"/>
    <path id="stroke-path-6" d="M1693.719 1096.247 L1705.852 1089.921" style="stroke-dasharray: 14, 16; stroke-dashoffset: 0;"/>
    <path id="stroke-path-7" d="M1717.688 1083.061 L1724.896 1078.8 1729.305 1075.841" style="stroke-dasharray: 14, 16; stroke-dashoffset: 0;"/>
    <path id="stroke-path-8" d="M1740.656 1068.202 L1751.494 1059.849" style="stroke-dasharray: 14, 16; stroke-dashoffset: 0;"/>
    <path id="stroke-path-9" d="M1761.567 1050.611 L1771.402 1041.099" style="stroke-dasharray: 14, 16; stroke-dashoffset: 0;"/>
    <path id="stroke-path-10" d="M1780.445 1030.856 L1789.123 1020.277" style="stroke-dasharray: 14, 16; stroke-dashoffset: 0;"/>
    <path id="stroke-path-11" d="M1797.379 1009.387 L1804.921 997.97" style="stroke-dasharray: 14, 16; stroke-dashoffset: 0;"/>
    <path id="stroke-path-12" d="M1812.462 986.553 L1813.394 985.142 1819.124 974.607" style="stroke-dasharray: 14, 16; stroke-dashoffset: 0;"/>
    <path id="stroke-path-13" d="M1825.157 962.335 L1828.786 954.443 1830.449 949.731" style="stroke-dasharray: 14, 16; stroke-dashoffset: 0;"/>
    <path id="stroke-path-14" d="M1835.002 936.827 L1836.783 931.779 1838.786 923.694" style="stroke-dasharray: 14, 16; stroke-dashoffset: 0;"/>
    <path id="stroke-path-15" d="M1842.075 910.412 L1844.969 898.73 1845.208 897.1" style="stroke-dasharray: 14, 16; stroke-dashoffset: 0;"/>
    <path id="stroke-path-16" d="M1847.199 883.562 L1849.189 870.025" style="stroke-dasharray: 14, 16; stroke-dashoffset: 0;"/>
    <path id="stroke-path-17" d="M1850.271 856.393 L1851.107 842.736" style="stroke-dasharray: 14, 16; stroke-dashoffset: 0;"/>
   </defs>
   <g id="путь" stroke="#ffffff" stroke-opacity="1" stroke-linecap="round" fill="none" stroke-width="6.841">
    <use xlink:href="#stroke-path"/>
    <use xlink:href="#stroke-path-1"/>
    <use xlink:href="#stroke-path-2"/>
    <use xlink:href="#stroke-path-3"/>
    <use xlink:href="#stroke-path-4"/>
    <use xlink:href="#stroke-path-5"/>
    <use xlink:href="#stroke-path-6"/>
    <use xlink:href="#stroke-path-7"/>
    <use xlink:href="#stroke-path-8"/>
    <use xlink:href="#stroke-path-9"/>
    <use xlink:href="#stroke-path-10"/>
    <use xlink:href="#stroke-path-11"/>
    <use xlink:href="#stroke-path-12"/>
    <use xlink:href="#stroke-path-13"/>
    <use xlink:href="#stroke-path-14"/>
    <use xlink:href="#stroke-path-15"/>
    <use xlink:href="#stroke-path-16"/>
    <use xlink:href="#stroke-path-17"/>
   </g>
   <path id="path-53" d="M1788.455 516.757 C1788.455 516.757 1790.728 495.228 1805.559 479.13 1818.711 464.854 1842.446 459.171 1856.87 459.745 1870.123 460.272 1890.336 467.374 1901.339 481.41 1905.93 487.266 1910.503 493.175 1912.742 499.653 1916.554 510.683 1915.022 525.878 1915.022 525.878" fill="none" stroke="#ffffff" stroke-width="6.841" stroke-opacity="1" stroke-linejoin="round" style="stroke-dasharray: 198, 200; stroke-dashoffset: 0;"/>
   <path id="path-54" d="M1852.309 633.062 C1852.309 633.062 1853.93 610.776 1859.027 598.818 1864.397 586.224 1886.785 569.307 1898.225 555.739 1912.206 539.154 1915.022 527.019 1915.022 527.019" fill="none" stroke="#ffffff" stroke-width="6.841" stroke-opacity="1" stroke-linejoin="round" style="stroke-dasharray: 127, 129; stroke-dashoffset: 0;"/>
   <path id="path-55" d="M1868.272 687.793 C1868.272 678.347 1860.615 670.69 1851.169 670.69 1841.723 670.69 1834.065 678.347 1834.065 687.793 1834.065 697.24 1841.723 704.897 1851.169 704.897 1860.615 704.897 1868.272 697.24 1868.272 687.793 Z" fill="none" stroke="#ffffff" stroke-width="6.841" stroke-opacity="1" stroke-linejoin="round" style="stroke-dasharray: 108, 110; stroke-dashoffset: 0;"/>
   <defs>
    <path id="path-56" d="M2074.657 574.909 C2074.657 451.48 1974.598 351.421 1851.169 351.421 1727.74 351.421 1627.681 451.48 1627.681 574.909 1627.681 698.338 1727.74 798.397 1851.169 798.397 1974.598 798.397 2074.657 698.338 2074.657 574.909 Z" style="stroke-dasharray: 1405, 1407; stroke-dashoffset: 0;"/>
   </defs>
   <defs>
    <path id="stroke-path-18" d="M2074.157 561.235 L2074.029 557.707 2072.75 547.635" style="stroke-dasharray: 14, 16; stroke-dashoffset: 0;"/>
    <path id="stroke-path-19" d="M2070.899 534.084 L2067.823 520.751" style="stroke-dasharray: 14, 16; stroke-dashoffset: 0;"/>
    <path id="stroke-path-20" d="M2064.128 507.594 L2059.744 494.633" style="stroke-dasharray: 14, 16; stroke-dashoffset: 0;"/>
    <path id="stroke-path-21" d="M2054.27 482.101 L2050.226 473.154 2048.3 469.803" style="stroke-dasharray: 14, 16; stroke-dashoffset: 0;"/>
    <path id="stroke-path-22" d="M2041.48 457.941 L2039.466 454.439 2033.878 446.58" style="stroke-dasharray: 14, 16; stroke-dashoffset: 0;"/>
    <path id="stroke-path-23" d="M2025.811 435.537 L2016.853 425.194" style="stroke-dasharray: 14, 16; stroke-dashoffset: 0;"/>
    <path id="stroke-path-24" d="M2007.36 415.361 L1997.456 405.92" style="stroke-dasharray: 14, 16; stroke-dashoffset: 0;"/>
    <path id="stroke-path-25" d="M1986.699 397.464 L1980.556 392.636 1975.614 389.468" style="stroke-dasharray: 14, 16; stroke-dashoffset: 0;"/>
    <path id="stroke-path-26" d="M1964.095 382.084 L1962.423 381.012 1952.923 375.851 1952.116 375.487" style="stroke-dasharray: 14, 16; stroke-dashoffset: 0;"/>
    <path id="stroke-path-27" d="M1939.648 369.851 L1933.126 366.903 1926.944 364.811" style="stroke-dasharray: 14, 16; stroke-dashoffset: 0;"/>
    <path id="stroke-path-28" d="M1913.983 360.427 L1912.36 359.878 1900.697 357.187" style="stroke-dasharray: 14, 16; stroke-dashoffset: 0;"/>
    <path id="stroke-path-29" d="M1887.315 354.366 L1879.64 353.193 1873.738 352.745" style="stroke-dasharray: 14, 16; stroke-dashoffset: 0;"/>
    <path id="stroke-path-30" d="M1860.094 351.709 L1856.943 351.47 1846.42 351.47" style="stroke-dasharray: 14, 16; stroke-dashoffset: 0;"/>
    <path id="stroke-path-31" d="M1832.774 352.428 L1822.697 353.193 1819.176 353.822" style="stroke-dasharray: 14, 16; stroke-dashoffset: 0;"/>
    <path id="stroke-path-32" d="M1805.706 356.226 L1800.688 357.122 1792.373 359.261" style="stroke-dasharray: 14, 16; stroke-dashoffset: 0;"/>
    <path id="stroke-path-33" d="M1779.359 363.47 L1769.211 366.903 1766.505 368.126" style="stroke-dasharray: 14, 16; stroke-dashoffset: 0;"/>
    <path id="stroke-path-34" d="M1754.036 373.762 L1749.414 375.851 1741.949 380.143" style="stroke-dasharray: 14, 16; stroke-dashoffset: 0;"/>
    <path id="stroke-path-35" d="M1730.114 387.006 L1721.781 392.636 1718.93 394.877" style="stroke-dasharray: 14, 16; stroke-dashoffset: 0;"/>
    <path id="stroke-path-36" d="M1708.171 403.331 L1704.898 405.903 1698.008 412.472" style="stroke-dasharray: 14, 16; stroke-dashoffset: 0;"/>
    <path id="stroke-path-37" d="M1688.226 422.03 L1679.267 432.372" style="stroke-dasharray: 14, 16; stroke-dashoffset: 0;"/>
    <path id="stroke-path-38" d="M1670.885 443.168 L1662.956 454.319" style="stroke-dasharray: 14, 16; stroke-dashoffset: 0;"/>
    <path id="stroke-path-39" d="M1656.124 466.174 L1652.111 473.154 1649.792 478.286" style="stroke-dasharray: 14, 16; stroke-dashoffset: 0;"/>
    <path id="stroke-path-40" d="M1644.156 490.754 L1643.162 492.951 1639.402 503.22 1639.311 503.543" style="stroke-dasharray: 14, 16; stroke-dashoffset: 0;"/>
    <path id="stroke-path-41" d="M1635.574 516.706 L1633.382 524.429 1632.388 529.996" style="stroke-dasharray: 14, 16; stroke-dashoffset: 0;"/>
    <path id="stroke-path-42" d="M1629.984 543.466 L1629.453 546.438 1628.646 557.071" style="stroke-dasharray: 14, 16; stroke-dashoffset: 0;"/>
    <path id="stroke-path-43" d="M1627.729 570.72 L1627.729 580.683 1627.918 584.398" style="stroke-dasharray: 14, 16; stroke-dashoffset: 0;"/>
    <path id="stroke-path-44" d="M1629.059 598.023 L1630.783 611.597" style="stroke-dasharray: 14, 16; stroke-dashoffset: 0;"/>
    <path id="stroke-path-45" d="M1633.572 624.981 L1636.137 636.101 1636.865 638.252" style="stroke-dasharray: 14, 16; stroke-dashoffset: 0;"/>
    <path id="stroke-path-46" d="M1641.25 651.214 L1643.162 656.867 1646.168 663.972" style="stroke-dasharray: 14, 16; stroke-dashoffset: 0;"/>
    <path id="stroke-path-47" d="M1652.194 676.249 L1657.272 686.164 1658.645 688.306" style="stroke-dasharray: 14, 16; stroke-dashoffset: 0;"/>
    <path id="stroke-path-48" d="M1666.029 699.825 L1668.896 704.297 1674.068 710.879" style="stroke-dasharray: 14, 16; stroke-dashoffset: 0;"/>
    <path id="stroke-path-49" d="M1682.564 721.601 L1692.006 731.504" style="stroke-dasharray: 14, 16; stroke-dashoffset: 0;"/>
    <path id="stroke-path-50" d="M1701.876 740.959 L1712.219 749.917" style="stroke-dasharray: 14, 16; stroke-dashoffset: 0;"/>
    <path id="stroke-path-51" d="M1723.295 757.942 L1730.698 763.206 1734.628 765.594" style="stroke-dasharray: 14, 16; stroke-dashoffset: 0;"/>
    <path id="stroke-path-52" d="M1746.588 772.224 L1758.767 778.461" style="stroke-dasharray: 14, 16; stroke-dashoffset: 0;"/>
    <path id="stroke-path-53" d="M1771.477 783.521 L1779.48 786.675 1784.368 788.063" style="stroke-dasharray: 14, 16; stroke-dashoffset: 0;"/>
    <path id="stroke-path-54" d="M1797.53 791.8 L1800.688 792.696 1810.877 794.781" style="stroke-dasharray: 14, 16; stroke-dashoffset: 0;"/>
    <path id="stroke-path-55" d="M1824.442 796.56 L1833.967 797.769 1838.046 797.918" style="stroke-dasharray: 14, 16; stroke-dashoffset: 0;"/>
    <path id="stroke-path-56" d="M1851.72 798.377 L1865.394 797.878" style="stroke-dasharray: 14, 16; stroke-dashoffset: 0;"/>
    <path id="stroke-path-57" d="M1878.99 796.421 L1890.738 794.929 1892.541 794.56" style="stroke-dasharray: 14, 16; stroke-dashoffset: 0;"/>
    <path id="stroke-path-58" d="M1905.868 791.498 L1919.031 787.762" style="stroke-dasharray: 14, 16; stroke-dashoffset: 0;"/>
    <path id="stroke-path-59" d="M1931.886 783.116 L1943.153 778.674 1944.553 777.958" style="stroke-dasharray: 14, 16; stroke-dashoffset: 0;"/>
    <path id="stroke-path-60" d="M1956.732 771.721 L1962.423 768.806 1968.652 765.021" style="stroke-dasharray: 14, 16; stroke-dashoffset: 0;"/>
    <path id="stroke-path-61" d="M1979.942 757.302 L1989.161 750.747 1990.953 749.195" style="stroke-dasharray: 14, 16; stroke-dashoffset: 0;"/>
    <path id="stroke-path-62" d="M2001.295 740.236 L2005.377 736.7 2011.092 730.706" style="stroke-dasharray: 14, 16; stroke-dashoffset: 0;"/>
    <path id="stroke-path-63" d="M2020.497 720.77 L2028.951 710.011" style="stroke-dasharray: 14, 16; stroke-dashoffset: 0;"/>
    <path id="stroke-path-64" d="M2036.904 698.896 L2044.288 687.377" style="stroke-dasharray: 14, 16; stroke-dashoffset: 0;"/>
    <path id="stroke-path-65" d="M2050.646 675.267 L2054.934 666.893 2056.599 662.956" style="stroke-dasharray: 14, 16; stroke-dashoffset: 0;"/>
    <path id="stroke-path-66" d="M2061.441 650.168 L2065.825 637.207" style="stroke-dasharray: 14, 16; stroke-dashoffset: 0;"/>
    <path id="stroke-path-67" d="M2069.013 623.906 L2071.188 614.478 2071.693 610.503" style="stroke-dasharray: 14, 16; stroke-dashoffset: 0;"/>
    <path id="stroke-path-68" d="M2073.417 596.929 L2074.029 592.111 2074.351 583.29" style="stroke-dasharray: 14, 16; stroke-dashoffset: 0;"/>
   </defs>
   <g id="эллипс" stroke="#ffffff" stroke-opacity="1" stroke-linecap="round" fill="none" stroke-width="6.841">
    <use xlink:href="#stroke-path-18"/>
    <use xlink:href="#stroke-path-19"/>
    <use xlink:href="#stroke-path-20"/>
    <use xlink:href="#stroke-path-21"/>
    <use xlink:href="#stroke-path-22"/>
    <use xlink:href="#stroke-path-23"/>
    <use xlink:href="#stroke-path-24"/>
    <use xlink:href="#stroke-path-25"/>
    <use xlink:href="#stroke-path-26"/>
    <use xlink:href="#stroke-path-27"/>
    <use xlink:href="#stroke-path-28"/>
    <use xlink:href="#stroke-path-29"/>
    <use xlink:href="#stroke-path-30"/>
    <use xlink:href="#stroke-path-31"/>
    <use xlink:href="#stroke-path-32"/>
    <use xlink:href="#stroke-path-33"/>
    <use xlink:href="#stroke-path-34"/>
    <use xlink:href="#stroke-path-35"/>
    <use xlink:href="#stroke-path-36"/>
    <use xlink:href="#stroke-path-37"/>
    <use xlink:href="#stroke-path-38"/>
    <use xlink:href="#stroke-path-39"/>
    <use xlink:href="#stroke-path-40"/>
    <use xlink:href="#stroke-path-41"/>
    <use xlink:href="#stroke-path-42"/>
    <use xlink:href="#stroke-path-43"/>
    <use xlink:href="#stroke-path-44"/>
    <use xlink:href="#stroke-path-45"/>
    <use xlink:href="#stroke-path-46"/>
    <use xlink:href="#stroke-path-47"/>
    <use xlink:href="#stroke-path-48"/>
    <use xlink:href="#stroke-path-49"/>
    <use xlink:href="#stroke-path-50"/>
    <use xlink:href="#stroke-path-51"/>
    <use xlink:href="#stroke-path-52"/>
    <use xlink:href="#stroke-path-53"/>
    <use xlink:href="#stroke-path-54"/>
    <use xlink:href="#stroke-path-55"/>
    <use xlink:href="#stroke-path-56"/>
    <use xlink:href="#stroke-path-57"/>
    <use xlink:href="#stroke-path-58"/>
    <use xlink:href="#stroke-path-59"/>
    <use xlink:href="#stroke-path-60"/>
    <use xlink:href="#stroke-path-61"/>
    <use xlink:href="#stroke-path-62"/>
    <use xlink:href="#stroke-path-63"/>
    <use xlink:href="#stroke-path-64"/>
    <use xlink:href="#stroke-path-65"/>
    <use xlink:href="#stroke-path-66"/>
    <use xlink:href="#stroke-path-67"/>
    <use xlink:href="#stroke-path-68"/>
   </g>
  </g>
 </g>
</svg>