<svg xmlns="http://www.w3.org/2000/svg" xmlns:xlink="http://www.w3.org/1999/xlink" width="2300px" height="2300px" viewBox="0 0 2300 2300" version="1.1">
 <!-- Generated by Pixelmator Pro 1.1.5 -->
 <path id="path" d="M1867 1727 L1760 1727" fill="none" stroke="#ffffff" stroke-width="6" stroke-opacity="1" stroke-linejoin="round" style="stroke-dasharray: 107, 109; stroke-dashoffset: 0;"/>
 <path id="path-1" d="M1078 1727 L1418 1727" fill="none" stroke="#ffffff" stroke-width="6" stroke-opacity="1" stroke-linejoin="round" style="stroke-dasharray: 340, 342; stroke-dashoffset: 0;"/>
 <path id="path-2" d="M151 1727 C480.109 1725.125 480 1727 480 1727" fill="none" stroke="#ffffff" stroke-width="6" stroke-opacity="1" stroke-linejoin="round" style="stroke-dasharray: 330, 332; stroke-dashoffset: 0;"/>
 <g id="legs">
  <path id="path-3" d="M1469 1764 L1425 1808 1540 1808 1540 1763 1469 1764 Z" fill="none" stroke="#ffffff" stroke-width="6" stroke-opacity="1" stroke-linejoin="round" style="stroke-dasharray: 294, 296; stroke-dashoffset: 0;"/>
  <path id="path-4" d="M1646 1763 L1602 1808 1715 1808 1715 1763 1646 1763 Z" fill="none" stroke="#ffffff" stroke-width="6" stroke-opacity="1" stroke-linejoin="round" style="stroke-dasharray: 290, 292; stroke-dashoffset: 0;"/>
  <path id="path-5" d="M1436 1209 L1418 1209 1418 1763 1576 1763 1576 1318 1595 1318 1602 1763 1760 1763 1753 1214 1753 1211 1626 1211" fill="none" stroke="#ffffff" stroke-width="6" stroke-opacity="1" stroke-linejoin="round" style="stroke-dasharray: 2477, 2479; stroke-dashoffset: 0;"/>
 </g>
 <g id="flower-left-скопировать">
  <path id="path-6" d="M96.443 1058.774 C96.443 1058.774 48.069 1134.356 52 1175.94 56.056 1218.826 123.992 1245.162 146.945 1294.116 161.636 1325.447 114.909 1367.894 131.795 1400.172 153.071 1440.841 208.665 1469.009 235.831 1506.227 260.778 1540.406 213.053 1616.163 233.811 1645.614 284.632 1717.717 390.368 1726.418 390.368 1726.418" fill="none" stroke="#ffffff" stroke-width="6.06" stroke-opacity="1" stroke-linejoin="round" style="stroke-dasharray: 866, 868; stroke-dashoffset: 0;"/>
  <path id="path-7" d="M325 1267 C304.163 1246.844 277.129 1267.357 260.072 1236.544 235.028 1191.304 252.506 1112.548 221.689 1089.078 187.906 1063.349 98.465 1056.756 98.465 1056.756" fill="none" stroke="#ffffff" stroke-width="6.06" stroke-opacity="1" stroke-linejoin="round" style="stroke-dasharray: 359, 361; stroke-dashoffset: 0;"/>
  <path id="path-8" d="M154.027 1170.89 L366.138 1582.991" fill="none" stroke="#ffffff" stroke-width="6.06" stroke-opacity="1" stroke-linejoin="round" style="stroke-dasharray: 464, 466; stroke-dashoffset: 0;"/>
  <path id="path-9" d="M257.043 1262.805 L241.892 1336.538" fill="none" stroke="#ffffff" stroke-width="6.06" stroke-opacity="1" stroke-linejoin="round" style="stroke-dasharray: 76, 78; stroke-dashoffset: 0;"/>
  <path id="path-10" d="M184.319 1366.84 L275.224 1409.262" fill="none" stroke="#ffffff" stroke-width="6.06" stroke-opacity="1" stroke-linejoin="round" style="stroke-dasharray: 101, 103; stroke-dashoffset: 0;"/>
 </g>
 <g id="body">
  <path id="path-11" d="M1416 1209 L1402 1209 1401.999 1033 C1401.999 1033 1346.762 1075.378 1317.999 1090 1289.412 1104.533 1230.999 1120 1230.999 1120 L1168 1022 C1168 1022 1255.486 986.229 1292.999 960 1309.921 948.168 1330.092 928.823 1340.999 906 1349.18 888.883 1351.126 869.013 1357.999 851 1364.872 832.987 1376.672 816.832 1389.999 803 1434.423 756.895 1512.999 746 1512.999 746 1512.999 746 1517.566 755.102 1525.999 763 1533.183 769.728 1543.686 775.489 1550.999 775 1557.876 774.541 1567.969 770.091 1573.999 763 1581.993 753.601 1584.999 741 1584.999 741 1584.999 741 1633.075 738.283 1682 757 1725.385 773.598 1768.99 809.706 1786.999 840 1813.933 885.31 1821.911 972.495 1810 1033 1802.385 1071.684 1775.999 1099 1775.999 1099 L1780 1211 1752 1211" fill="none" stroke="#ffffff" stroke-width="6" stroke-opacity="1" stroke-linejoin="round" style="stroke-dasharray: 1716, 1718; stroke-dashoffset: 0;"/>
  <path id="path-12" d="M1680.999 975 L1680.999 975 C1680.999 975 1682.592 1005.357 1678 1019 1672.364 1035.744 1658.137 1052.793 1648.999 1063 1613.099 1103.103 1504 1137 1504 1137" fill="none" stroke="#ffffff" stroke-width="6" stroke-opacity="1" stroke-linejoin="round" style="stroke-dasharray: 262, 264; stroke-dashoffset: 0;"/>
  <path id="path-13" d="M1754 1124 L1754 1124 C1754 1124 1740.331 1142.411 1719.183 1160 1703.23 1173.269 1681.302 1185.284 1667.455 1193 1635.442 1210.839 1564 1230 1564 1230" fill="none" stroke="#ffffff" stroke-width="6" stroke-opacity="1" stroke-linejoin="round" style="stroke-dasharray: 222, 224; stroke-dashoffset: 0;"/>
  <path id="path-14" d="M1564 1230 L1513 1156 1453 1183 1459 1196 1468 1191 1432 1211 1470 1271 1557 1221" fill="none" stroke="#ffffff" stroke-width="6" stroke-opacity="1" stroke-linejoin="round" style="stroke-dasharray: 393, 395; stroke-dashoffset: 0;"/>
  <path id="path-15" d="M1475 1207 L1442 1225" fill="none" stroke="#ffffff" stroke-width="6" stroke-opacity="1" stroke-linejoin="round" style="stroke-dasharray: 38, 40; stroke-dashoffset: 0;"/>
  <path id="path-16" d="M1484 1223 L1484 1223 1451 1240" fill="none" stroke="#ffffff" stroke-width="6" stroke-opacity="1" stroke-linejoin="round" style="stroke-dasharray: 38, 40; stroke-dashoffset: 0;"/>
  <path id="path-17" d="M1494 1238 L1461 1255" fill="none" stroke="#ffffff" stroke-width="6" stroke-opacity="1" stroke-linejoin="round" style="stroke-dasharray: 38, 40; stroke-dashoffset: 0;"/>
  <path id="path-18" d="M1130 1062 L1176 1040" fill="none" stroke="#ffffff" stroke-width="6" stroke-opacity="1" stroke-linejoin="round" style="stroke-dasharray: 51, 53; stroke-dashoffset: 0;"/>
  <path id="path-19" d="M1180 1132 L1221 1108" fill="none" stroke="#ffffff" stroke-width="6" stroke-opacity="1" stroke-linejoin="round" style="stroke-dasharray: 48, 50; stroke-dashoffset: 0;"/>
 </g>
 <g id="target">
  <path id="path-20" d="M1243 1370 C1243 1113.74 1035.26 906 779 906 522.74 906 315 1113.74 315 1370 315 1626.26 522.74 1834 779 1834 1035.26 1834 1243 1626.26 1243 1370 Z" fill="none" stroke="#ffffff" stroke-width="6" stroke-opacity="1" stroke-linejoin="round" style="stroke-dasharray: 2916, 2918; stroke-dashoffset: 0;"/>
  <path id="path-21" d="M1166 1369 C1166 1155.266 992.734 982 779 982 565.266 982 392 1155.266 392 1369 392 1582.734 565.266 1756 779 1756 992.734 1756 1166 1582.734 1166 1369 Z" fill="none" stroke="#ffffff" stroke-width="6" stroke-opacity="1" stroke-linejoin="round" style="stroke-dasharray: 2432, 2434; stroke-dashoffset: 0;"/>
  <path id="path-22" d="M1091 1369 C1091 1197.792 952.208 1059 781 1059 609.792 1059 471 1197.792 471 1369 471 1540.208 609.792 1679 781 1679 952.208 1679 1091 1540.208 1091 1369 Z" fill="none" stroke="#ffffff" stroke-width="6" stroke-opacity="1" stroke-linejoin="round" style="stroke-dasharray: 1949, 1951; stroke-dashoffset: 0;"/>
  <path id="path-23" d="M1014 1369 C1014 1240.318 909.682 1136 781 1136 652.318 1136 548 1240.318 548 1369 548 1497.682 652.318 1602 781 1602 909.682 1602 1014 1497.682 1014 1369 Z" fill="none" stroke="#ffffff" stroke-width="6" stroke-opacity="1" stroke-linejoin="round" style="stroke-dasharray: 1465, 1467; stroke-dashoffset: 0;"/>
  <path id="path-24" d="M935 1369 C935 1282.844 865.156 1213 779 1213 692.844 1213 623 1282.844 623 1369 623 1455.156 692.844 1525 779 1525 865.156 1525 935 1455.156 935 1369 Z" fill="none" stroke="#ffffff" stroke-width="6" stroke-opacity="1" stroke-linejoin="round" style="stroke-dasharray: 981, 983; stroke-dashoffset: 0;"/>
  <path id="path-25" d="M858 1369 C858 1325.37 822.63 1290 779 1290 735.369 1290 700 1325.37 700 1369 700 1412.631 735.369 1448 779 1448 822.63 1448 858 1412.631 858 1369 Z" fill="none" stroke="#ffffff" stroke-width="6" stroke-opacity="1" stroke-linejoin="round" style="stroke-dasharray: 497, 499; stroke-dashoffset: 0;"/>
 </g>
 <g id="lamp">
  <path id="path-26" d="M1015.13 971.231 L1091.056 971.231 1091.056 936.827 1015.13 936.827 Z" fill="none" stroke="#ffffff" stroke-width="6" stroke-opacity="1" stroke-linejoin="round" style="stroke-dasharray: 221, 223; stroke-dashoffset: 0;"/>
  <path id="path-27" d="M1015.129 935.641 C1015.129 935.641 1013.848 912.95 1005.637 894.121 997.748 876.031 981.674 857.488 984.281 835.991 986.248 819.791 993.084 802.387 1005.638 790.907 1019.795 777.962 1040.362 771.93 1053.089 771.93 1065.056 771.93 1084.858 774.232 1099.359 786.163 1113.292 797.625 1122.128 818.385 1124.271 834.804 1126.937 855.237 1110.785 875.167 1102.918 892.934 1093.682 913.792 1091.056 934.455 1091.056 934.455" fill="none" stroke="#ffffff" stroke-width="6" stroke-opacity="1" stroke-linejoin="round" style="stroke-dasharray: 421, 423; stroke-dashoffset: 0;"/>
  <path id="path-28" d="M1043.602 935.641 L1029.366 840.733 1079.192 840.733 1067.329 935.641" fill="none" stroke="#ffffff" stroke-width="6" stroke-opacity="1" stroke-linejoin="round" style="stroke-dasharray: 242, 244; stroke-dashoffset: 0;"/>
  <path id="path-29" d="M1054.279 745.826 L1054.279 707.862" fill="none" stroke="#ffffff" stroke-width="6" stroke-opacity="1" stroke-linejoin="round" style="stroke-dasharray: 38, 40; stroke-dashoffset: 0;"/>
  <path id="path-30" d="M990.216 901.237 L961.744 930.896" fill="none" stroke="#ffffff" stroke-width="6" stroke-opacity="1" stroke-linejoin="round" style="stroke-dasharray: 42, 44; stroke-dashoffset: 0;"/>
  <path id="path-31" d="M964.071 837.173 L923.781 837.174" fill="none" stroke="#ffffff" stroke-width="6" stroke-opacity="1" stroke-linejoin="round" style="stroke-dasharray: 41, 43; stroke-dashoffset: 0;"/>
  <path id="path-32" d="M989.03 771.925 L962.93 745.826" fill="none" stroke="#ffffff" stroke-width="6" stroke-opacity="1" stroke-linejoin="round" style="stroke-dasharray: 37, 39; stroke-dashoffset: 0;"/>
  <path id="path-33" d="M1119.528 771.925 L1145.628 745.825" fill="none" stroke="#ffffff" stroke-width="6" stroke-opacity="1" stroke-linejoin="round" style="stroke-dasharray: 37, 39; stroke-dashoffset: 0;"/>
  <path id="path-34" d="M1145.628 837.174 L1184.777 837.174" fill="none" stroke="#ffffff" stroke-width="6" stroke-opacity="1" stroke-linejoin="round" style="stroke-dasharray: 40, 42; stroke-dashoffset: 0;"/>
  <path id="path-35" d="M1119.528 902.423 L1145.628 929.709" fill="none" stroke="#ffffff" stroke-width="6" stroke-opacity="1" stroke-linejoin="round" style="stroke-dasharray: 38, 40; stroke-dashoffset: 0;"/>
 </g>
 <g id="head">
  <path id="path-36" d="M1582 666 L1585 741" fill="none" stroke="#ffffff" stroke-width="6" stroke-opacity="1" stroke-linejoin="round" style="stroke-dasharray: 76, 78; stroke-dashoffset: 0;"/>
  <path id="path-37" d="M1512 692 L1512 745" fill="none" stroke="#ffffff" stroke-width="6" stroke-opacity="1" stroke-linejoin="round" style="stroke-dasharray: 53, 55; stroke-dashoffset: 0;"/>
  <path id="path-38" d="M1579.997 618.004 C1579.997 618.004 1572.375 607.677 1560.998 601.002 1551.69 595.54 1539.657 593.244 1528.997 595.003 1516.915 596.997 1503.974 604.892 1495.999 616.001 1487.698 627.563 1484.633 642.475 1485.997 651.004 1487.108 657.94 1490.567 669.008 1497.999 678.001 1507.852 689.921 1523.391 698.926 1536.997 697.003 1542.486 696.226 1548.396 695.814 1554 694 1560.319 691.955 1566.262 688.272 1570.998 683.002 1581.075 671.789 1585.997 653.004 1585.997 653.004" fill="none" stroke="#ffffff" stroke-width="6" stroke-opacity="1" stroke-linejoin="round" style="stroke-dasharray: 283, 285; stroke-dashoffset: 0;"/>
  <path id="path-39" d="M1580 618 C1580 618 1588.394 615.957 1595.78 619 1602.072 621.592 1606.481 629.813 1606.967 635 1607.394 639.552 1603.565 645.592 1598.577 649 1592.722 653.001 1585.525 654 1585.525 654" fill="none" stroke="#ffffff" stroke-width="6" stroke-opacity="1" stroke-linejoin="round" style="stroke-dasharray: 68, 70; stroke-dashoffset: 0;"/>
  <path id="path-40" d="M1593 634 C1593 634 1585.155 633.371 1583 636 1581.098 638.32 1583 645 1583 645" fill="none" stroke="#ffffff" stroke-width="6" stroke-opacity="1" stroke-linejoin="round" style="stroke-dasharray: 20, 22; stroke-dashoffset: 0;"/>
  <path id="path-41" d="M1511.994 728.003 C1511.994 728.003 1496.046 727.143 1478.994 719.003 1461.246 710.531 1442.193 694.529 1432.994 682.003 1426.583 673.276 1417.121 657.821 1414.994 644.003 1412.695 629.034 1417.994 616.003 1417.994 616.003 1417.994 616.003 1421.714 606.061 1424.995 602.003 1429.02 597.024 1439.994 590.003 1439.994 590.003 1439.994 590.003 1437.128 558.963 1452.996 534.003 1461.749 520.235 1475.244 506.379 1489.996 497.003 1503.079 488.689 1517.289 484.271 1527.995 481.003 1540.49 477.19 1558 478.986 1573.997 485.003 1603.706 496.176 1630.997 518.003 1630.997 518.003 1630.997 518.003 1689.909 482.21 1720.998 488.002 1738.173 491.203 1764.595 498.072 1780.998 514.002 1799.497 531.965 1806.994 559.003 1806.994 559.003 1806.994 559.003 1771.09 576.305 1755.999 589.001 1744.959 598.289 1727.994 622.003 1727.994 622.003 1727.994 622.003 1696.325 667.731 1675 685 1648.575 706.399 1584.994 733 1584.994 733" fill="none" stroke="#ffffff" stroke-width="6" stroke-opacity="1" stroke-linejoin="round" style="stroke-dasharray: 968, 970; stroke-dashoffset: 0;"/>
 </g>
 <g id="start">
  <g id="new-group">
   <path id="path-42" d="M563.304 461.429 C563.304 461.429 540.024 449.719 518.304 450.43 507.285 450.791 490.233 460.425 486.304 472.43 483.895 479.787 490.644 490.323 494.304 493.431 500.461 498.661 536.328 503.345 549.304 511.434 559.499 517.79 565.745 529.344 563.304 537.435 559.389 550.411 539.598 562.144 520.304 561.435 496.722 560.56 474.304 546.429 474.304 546.429" fill="none" stroke="#ffffff" stroke-width="6" stroke-opacity="1" stroke-linejoin="round" style="stroke-dasharray: 302, 304; stroke-dashoffset: 0;"/>
   <g id="new-group-1">
    <path id="path-43" d="M637.304 421.431 C637.304 421.431 639.302 528.431 639.302 528.431 639.302 528.431 639.181 541.554 645.303 548.43 650.519 554.287 660.537 558.905 666.303 560.43 672.556 562.083 682.839 561.932 691.304 559.429 704.003 555.676 714.304 548.43 714.304 548.43" fill="none" stroke="#ffffff" stroke-width="6" stroke-opacity="1" stroke-linejoin="round" style="stroke-dasharray: 204, 206; stroke-dashoffset: 0;"/>
    <path id="path-44" d="M602.304 452.429 L708.304 452.429" fill="none" stroke="#ffffff" stroke-width="6" stroke-opacity="1" stroke-linejoin="round" style="stroke-dasharray: 106, 108; stroke-dashoffset: 0;"/>
   </g>
   <g id="new-group-2">
    <path id="path-45" d="M767.304 461.429 C767.304 461.429 813.171 443.486 830.304 457.43 851.069 474.332 838.219 508.663 839.304 535.43 839.647 543.883 836.164 548.97 842.304 554.429 848.033 559.523 864.304 557.43 864.304 557.43" fill="none" stroke="#ffffff" stroke-width="6" stroke-opacity="1" stroke-linejoin="round" style="stroke-dasharray: 190, 192; stroke-dashoffset: 0;"/>
    <path id="path-46" d="M841.302 503.431 C841.302 503.431 809.978 497.664 787.303 503.43 770.883 507.606 760.614 520.771 762.302 532.431 763.834 543.002 775.039 560.871 790.303 560.43 798.211 560.201 810.414 561.233 818.304 557.429 832.329 550.667 838.304 537.429 838.304 537.429" fill="none" stroke="#ffffff" stroke-width="6" stroke-opacity="1" stroke-linejoin="round" style="stroke-dasharray: 196, 198; stroke-dashoffset: 0;"/>
   </g>
   <g id="new-group-3">
    <path id="path-47" d="M897.304 452.429 L936.304 452.429 936.304 556.429 990.304 556.429 898.304 556.429" fill="none" stroke="#ffffff" stroke-width="6" stroke-opacity="1" stroke-linejoin="round" style="stroke-dasharray: 290, 292; stroke-dashoffset: 0;"/>
    <path id="path-48" d="M938.304 474.429 C938.304 474.429 974.035 444.57 991.304 452.43 1003.136 457.815 1006.304 486.429 1006.304 486.429" fill="none" stroke="#ffffff" stroke-width="6" stroke-opacity="1" stroke-linejoin="round" style="stroke-dasharray: 98, 100; stroke-dashoffset: 0;"/>
   </g>
   <g id="new-group-скопировать">
    <path id="path-49" d="M1069.304 422.431 C1069.304 422.431 1071.302 529.431 1071.302 529.431 1071.302 529.431 1071.181 542.554 1077.303 549.43 1082.519 555.287 1092.537 559.905 1098.303 561.43 1104.556 563.083 1114.839 562.932 1123.304 560.429 1136.003 556.676 1146.304 549.43 1146.304 549.43" fill="none" stroke="#ffffff" stroke-width="6" stroke-opacity="1" stroke-linejoin="round" style="stroke-dasharray: 204, 206; stroke-dashoffset: 0;"/>
    <path id="path-50" d="M1034.304 453.429 L1140.304 453.429" fill="none" stroke="#ffffff" stroke-width="6" stroke-opacity="1" stroke-linejoin="round" style="stroke-dasharray: 106, 108; stroke-dashoffset: 0;"/>
   </g>
  </g>
  <path id="path-51" d="M315 606 L1314 606 1314 390 315 390 Z" fill="none" stroke="#ffffff" stroke-width="6" stroke-opacity="1" stroke-linejoin="round" style="stroke-dasharray: 2430, 2432; stroke-dashoffset: 0;"/>
  <path id="path-52" d="M315 893 L315 606" fill="none" stroke="#ffffff" stroke-width="6" stroke-opacity="1" stroke-linejoin="round" style="stroke-dasharray: 287, 289; stroke-dashoffset: 0;"/>
  <path id="path-53" d="M1313 893 L1313 606" fill="none" stroke="#ffffff" stroke-width="6" stroke-opacity="1" stroke-linejoin="round" style="stroke-dasharray: 287, 289; stroke-dashoffset: 0;"/>
 </g>
 <g id="tree-right">
  <path id="path-54" d="M1891.998 1166 C1891.998 1166 1940.982 1220.648 1942.998 1254 1944.869 1284.957 1893.108 1313.608 1882.999 1351 1876.103 1376.505 1916.344 1417.463 1907.999 1444 1897.922 1476.044 1856.543 1499.762 1842 1529 1824.958 1563.259 1874.664 1603.448 1862 1631 1838.481 1682.167 1759 1709 1759 1709" fill="none" stroke="#ffffff" stroke-width="6" stroke-opacity="1" stroke-linejoin="round" style="stroke-dasharray: 666, 668; stroke-dashoffset: 0;"/>
  <path id="path-55" d="M1755 1349 C1755 1349 1788.114 1335.533 1792 1310 1796.946 1277.503 1778.402 1227.518 1796 1207 1818.255 1181.052 1890 1166 1890 1166" fill="none" stroke="#ffffff" stroke-width="6" stroke-opacity="1" stroke-linejoin="round" style="stroke-dasharray: 265, 267; stroke-dashoffset: 0;"/>
  <path id="path-56" d="M1861 1257 L1758 1567" fill="none" stroke="#ffffff" stroke-width="6" stroke-opacity="1" stroke-linejoin="round" style="stroke-dasharray: 327, 329; stroke-dashoffset: 0;"/>
  <path id="path-57" d="M1861 1370 L1815 1399" fill="none" stroke="#ffffff" stroke-width="6" stroke-opacity="1" stroke-linejoin="round" style="stroke-dasharray: 55, 57; stroke-dashoffset: 0;"/>
  <path id="path-58" d="M1766 1384 L1794 1456" fill="none" stroke="#ffffff" stroke-width="6" stroke-opacity="1" stroke-linejoin="round" style="stroke-dasharray: 78, 80; stroke-dashoffset: 0;"/>
  <path id="path-59" d="M1808 1607 L1759 1623" fill="none" stroke="#ffffff" stroke-width="6" stroke-opacity="1" stroke-linejoin="round" style="stroke-dasharray: 52, 54; stroke-dashoffset: 0;"/>
 </g>
</svg>