<svg xmlns="http://www.w3.org/2000/svg" xmlns:xlink="http://www.w3.org/1999/xlink" width="2300px" height="2300px" viewBox="0 0 2300 2300" version="1.1">
 <!-- Generated by Pixelmator Pro 1.1.5 -->
 <g id="legs">
  <path id="path" d="M1424 1283 L1389 1283 1389 2017 1598 2017 1598 1432 1623 1432 1632 2016 1837 2016 1830 1287 1669 1287" fill="none" stroke="#ffffff" stroke-width="6" stroke-opacity="1" stroke-linejoin="round" style="stroke-dasharray: 3268, 3270; stroke-dashoffset: 0;"/>
  <path id="path-1" d="M1457 2018 L1399 2080 1549 2080 1550 2019" fill="none" stroke="#ffffff" stroke-width="6" stroke-opacity="1" stroke-linejoin="round" style="stroke-dasharray: 296, 298; stroke-dashoffset: 0;"/>
  <path id="path-2" d="M1691 2018 L1631 2080 1783 2080 1784 2018" fill="none" stroke="#ffffff" stroke-width="6" stroke-opacity="1" stroke-linejoin="round" style="stroke-dasharray: 301, 303; stroke-dashoffset: 0;"/>
 </g>
 <g id="body">
  <path id="path-3" d="M1829.993 1287 L1861.993 1287 1861.993 1150 C1861.993 1150 1895.866 1101.063 1907.993 1037 1922.229 961.795 1913.214 866.305 1883.993 813 1861.198 771.418 1809.247 720.518 1751.993 695 1684.783 665.044 1612.993 664 1612.993 664 1612.993 664 1604.529 689.869 1594.996 698 1586.653 705.116 1563.993 708 1563.993 708 1563.993 708 1540.779 704.909 1531.997 698 1524.359 691.991 1516.993 673 1516.993 673 1516.993 673 1481.849 677.972 1443.995 692 1411.748 703.95 1377.808 723.506 1358.994 741 1342.88 755.985 1323.694 782.065 1311.995 808 1295.161 845.321 1288.993 882 1288.993 882 1288.993 882 1234.493 950.906 1198.998 975 1156.844 1003.615 1054 1039 1054 1039 L1134.993 1160 1163.999 1160 C1163.999 1160 1236.011 1137.581 1271 1119 1302.842 1102.09 1363.993 1055 1363.993 1055 L1363.993 1283 1391.993 1283" fill="none" stroke="#ffffff" stroke-width="6" stroke-opacity="1" stroke-linejoin="round" style="stroke-dasharray: 2260, 2262; stroke-dashoffset: 0;"/>
  <path id="path-4" d="M1736 975 C1736 975 1739.121 998.172 1734 1022 1729.638 1042.298 1717.924 1062.548 1708 1075 1682.668 1106.783 1627.665 1144.47 1581 1165 1537.924 1183.951 1502 1187 1502 1187" fill="none" stroke="#ffffff" stroke-width="6" stroke-opacity="1" stroke-linejoin="round" style="stroke-dasharray: 346, 348; stroke-dashoffset: 0;"/>
  <path id="path-5" d="M1837 1174 C1837 1174 1814.635 1199.616 1785 1224 1764.406 1240.945 1738.805 1256.387 1721 1266 1678.055 1289.186 1582 1312 1582 1312 L1515 1214 1434 1255 1443 1273 1408 1293 1457 1370 1572 1301" fill="none" stroke="#ffffff" stroke-width="6" stroke-opacity="1" stroke-linejoin="round" style="stroke-dasharray: 791, 793; stroke-dashoffset: 0;"/>
  <path id="path-6" d="M1461 1289 L1423 1310" fill="none" stroke="#ffffff" stroke-width="6" stroke-opacity="1" stroke-linejoin="round" style="stroke-dasharray: 44, 46; stroke-dashoffset: 0;"/>
  <path id="path-7" d="M1473 1309 L1435 1331" fill="none" stroke="#ffffff" stroke-width="6" stroke-opacity="1" stroke-linejoin="round" style="stroke-dasharray: 44, 46; stroke-dashoffset: 0;"/>
  <path id="path-8" d="M1483 1329 L1447 1351" fill="none" stroke="#ffffff" stroke-width="6" stroke-opacity="1" stroke-linejoin="round" style="stroke-dasharray: 43, 45; stroke-dashoffset: 0;"/>
  <path id="path-9" d="M1069 1062 L988 1101 999 1121 963 1143 973 1159 1113 1160 1128 1152" fill="none" stroke="#ffffff" stroke-width="6" stroke-opacity="1" stroke-linejoin="round" style="stroke-dasharray: 331, 333; stroke-dashoffset: 0;"/>
  <path id="path-10" d="M1012 1114 L997 1122" fill="none" stroke="#ffffff" stroke-width="6" stroke-opacity="1" stroke-linejoin="round" style="stroke-dasharray: 17, 19; stroke-dashoffset: 0;"/>
  <path id="path-11" d="M1012 1135 L975 1156" fill="none" stroke="#ffffff" stroke-width="6" stroke-opacity="1" stroke-linejoin="round" style="stroke-dasharray: 43, 45; stroke-dashoffset: 0;"/>
  <path id="path-12" d="M1026 1152 L1015 1158" fill="none" stroke="#ffffff" stroke-width="6" stroke-opacity="1" stroke-linejoin="round" style="stroke-dasharray: 13, 15; stroke-dashoffset: 0;"/>
  <path id="path-13" d="M1460 1265 L1440 1275" fill="none" stroke="#ffffff" stroke-width="6" stroke-opacity="1" stroke-linejoin="round" style="stroke-dasharray: 23, 25; stroke-dashoffset: 0;"/>
 </g>
 <g id="head">
  <path id="path-14" d="M1613 550.005 C1613 550.005 1602.142 581.644 1590 592.005 1585.363 595.961 1578.701 600.566 1571 603.004 1559.916 606.513 1548 607.005 1548 607.005 1548 607.005 1534.992 607.322 1522 603.005 1510.932 599.323 1500.202 591.563 1494 585.005 1482.7 573.056 1478.171 555.238 1478 539.005 1477.862 526.039 1479.217 518.657 1490 502.003 1498.134 489.439 1514.274 480.058 1525 477.004 1536.252 473.799 1555.736 473.38 1570 480.002 1589.697 489.147 1603 507.005 1603 507.005 1603 507.005 1619.779 502.54 1627 506.001 1634.094 509.402 1641.812 517.177 1641 525.002 1640.547 529.358 1639.444 538.16 1635 542 1626.746 549.132 1613 550.005 1613 550.005 Z" fill="none" stroke="#ffffff" stroke-width="6" stroke-opacity="1" stroke-linejoin="round" style="stroke-dasharray: 468, 470; stroke-dashoffset: 0;"/>
  <path id="path-15" d="M1619 526 C1619 526 1610.542 525.041 1608 528 1605.785 530.579 1606 538 1606 538" fill="none" stroke="#ffffff" stroke-width="6" stroke-opacity="1" stroke-linejoin="round" style="stroke-dasharray: 22, 24; stroke-dashoffset: 0;"/>
  <path id="path-16" d="M1517 674 L1517 603" fill="none" stroke="#ffffff" stroke-width="6" stroke-opacity="1" stroke-linejoin="round" style="stroke-dasharray: 71, 73; stroke-dashoffset: 0;"/>
  <path id="path-17" d="M1611 668 L1611 556 1611 557.067" fill="none" stroke="#ffffff" stroke-width="6" stroke-opacity="1" stroke-linejoin="round" style="stroke-dasharray: 114, 116; stroke-dashoffset: 0;"/>
  <path id="path-18" d="M1516.992 649 C1516.992 649 1496.916 648.31 1473.995 639 1458.714 632.794 1442.451 621.284 1428.994 609 1412.507 593.954 1397.057 574.713 1389.994 557 1383.213 539.982 1384.496 524.271 1383.992 520 1382.94 511.03 1384.647 496.668 1391.992 487 1401.341 474.696 1416.992 468 1416.992 468 1416.992 468 1411.191 430.53 1433.996 394 1454.219 361.606 1501.371 330.249 1528.995 322 1550.234 315.658 1585.733 322.201 1612.996 334 1649.136 349.64 1674.992 373 1674.992 373 1674.992 373 1700.348 354.744 1731.997 343 1755.874 334.141 1784.21 330.136 1802.997 334 1820.604 337.621 1848.336 347.73 1865.998 364 1892.491 388.404 1905.992 421 1905.992 421 1905.992 421 1851.824 454.045 1828.999 475 1795.308 505.929 1777.73 549.384 1744.992 580 1724.53 599.137 1701.284 615.936 1675.999 628 1656.575 637.268 1613.992 646 1613.992 646" fill="none" stroke="#ffffff" stroke-width="6" stroke-opacity="1" stroke-linejoin="round" style="stroke-dasharray: 1282, 1284; stroke-dashoffset: 0;"/>
 </g>
 <g id="ground">
  <path id="path-19" d="M194 1968 L1349 1970" fill="none" stroke="#ffffff" stroke-width="6" stroke-opacity="1" stroke-linejoin="round" style="stroke-dasharray: 1156, 1158; stroke-dashoffset: 0;"/>
  <path id="path-20" d="M1867 1970 L1986 1970" fill="none" stroke="#ffffff" stroke-width="6" stroke-opacity="1" stroke-linejoin="round" style="stroke-dasharray: 119, 121; stroke-dashoffset: 0;"/>
 </g>
 <g id="cube">
  <path id="path-21" d="M845 1968 C845 1968 847.504 1954.607 855 1942 860.889 1932.095 870.935 1923.224 878 1918 888.686 1910.098 907.123 1902.048 924 1898 944.627 1893.053 963 1893 963 1893 L1059 1893 C1059 1893 1078.622 1893.912 1100 1900 1116.797 1904.783 1134.671 1913.603 1145 1922 1151.346 1927.159 1161.132 1936.546 1166 1946 1171.715 1957.098 1172 1968 1172 1968" fill="none" stroke="#ffffff" stroke-width="6" stroke-opacity="1" stroke-linejoin="round" style="stroke-dasharray: 395, 397; stroke-dashoffset: 0;"/>
  <path id="path-22" d="M1055 1766 C1055 1741.147 1034.853 1721 1010 1721 985.147 1721 965 1741.147 965 1766 965 1790.853 985.147 1811 1010 1811 1034.853 1811 1055 1790.853 1055 1766 Z" fill="none" stroke="#ffffff" stroke-width="6" stroke-opacity="1" stroke-linejoin="round" style="stroke-dasharray: 283, 285; stroke-dashoffset: 0;"/>
  <path id="path-23" d="M1010 1809 L1010 1893" fill="none" stroke="#ffffff" stroke-width="6" stroke-opacity="1" stroke-linejoin="round" style="stroke-dasharray: 84, 86; stroke-dashoffset: 0;"/>
  <path id="path-24" d="M1010 1643 L1010 1721" fill="none" stroke="#ffffff" stroke-width="6" stroke-opacity="1" stroke-linejoin="round" style="stroke-dasharray: 78, 80; stroke-dashoffset: 0;"/>
  <path id="path-25" d="M712 1242 L1306 1242 1306 1161 712 1161 Z" fill="none" stroke="#ffffff" stroke-width="6" stroke-opacity="1" stroke-linejoin="round" style="stroke-dasharray: 1350, 1352; stroke-dashoffset: 0;"/>
  <path id="path-26" d="M746 1244.002 C746 1244.002 746.292 1458.974 815 1542.002 836.817 1568.366 876.216 1609.104 920 1628.002 962.067 1646.157 1009 1643.002 1009 1643.002 1009 1643.002 1055.559 1646.202 1102 1627 1139.997 1611.289 1177.001 1575.53 1196 1553.001 1266.623 1469.253 1271 1244.002 1271 1244.002" fill="none" stroke="#ffffff" stroke-width="6" stroke-opacity="1" stroke-linejoin="round" style="stroke-dasharray: 1077, 1079; stroke-dashoffset: 0;"/>
  <path id="path-27" d="M748.998 1328.001 L677.998 1329.001 C677.998 1329.001 664.914 1337.082 660.998 1344.001 656.399 1352.129 656.998 1370.001 656.998 1370.001 656.998 1370.001 660.947 1409.969 680.999 1453.001 701.87 1497.789 739.47 1546.18 770.999 1571.001 799.832 1593.7 848.536 1620.332 896 1632 954.011 1646.261 1008.998 1643 1008.998 1643" fill="none" stroke="#ffffff" stroke-width="6" stroke-opacity="1" stroke-linejoin="round" style="stroke-dasharray: 611, 613; stroke-dashoffset: 0;"/>
  <path id="path-28" d="M1268.997 1328 L1338.997 1328 C1338.997 1328 1357.153 1337.862 1360.998 1348 1364.905 1358.305 1359.997 1384 1359.997 1384 1359.997 1384 1354.669 1425.289 1332.999 1466 1310.446 1508.373 1271.082 1550.62 1247.999 1571 1218.86 1596.727 1173.255 1619.209 1130 1630 1067.755 1645.528 1010 1643 1010 1643" fill="none" stroke="#ffffff" stroke-width="6" stroke-opacity="1" stroke-linejoin="round" style="stroke-dasharray: 614, 616; stroke-dashoffset: 0;"/>
  <path id="path-29" d="M963 1352 L1016 1321 1016 1540" fill="none" stroke="#ffffff" stroke-width="14" stroke-opacity="1" stroke-linejoin="round" style="stroke-dasharray: 281, 283; stroke-dashoffset: 0;"/>
 </g>
 <g id="new-group">
  <path id="path-30" d="M545.895 1442.291 L566.334 1434.151 214.105 549.709 193.666 557.849 Z" fill="none" stroke="#ffffff" stroke-width="6" stroke-opacity="1" stroke-linejoin="round" style="stroke-dasharray: 1948, 1950; stroke-dashoffset: 0;"/>
  <path id="path-31" d="M213.998 546 C206.297 495.819 206.136 461.347 223.998 424 250.901 367.755 308.071 324.784 358.998 313 416.702 299.648 494.113 349.35 552.999 365 614.694 381.397 704.592 368.974 747.998 327 784.114 292.076 787.766 224.127 817.998 184 853.553 136.809 908.967 132.073 953.998 116" fill="none" stroke="#ffffff" stroke-width="6" stroke-opacity="1" stroke-linejoin="round" style="stroke-dasharray: 1030, 1032; stroke-dashoffset: 0;"/>
  <path id="path-32" d="M263.998 677 C256.297 626.819 256.136 592.347 273.998 555 300.901 498.755 358.071 455.784 408.998 444 466.702 430.648 544.113 480.35 602.999 496 664.694 512.397 754.592 499.974 797.998 458 834.114 423.076 837.766 355.127 867.998 315 903.553 267.809 958.967 263.073 1003.998 247" fill="none" stroke="#ffffff" stroke-width="6" stroke-opacity="1" stroke-linejoin="round" style="stroke-dasharray: 1030, 1032; stroke-dashoffset: 0;"/>
  <path id="path-33" d="M383.998 976 C376.297 925.819 376.136 891.347 393.998 854 420.901 797.755 478.071 754.784 528.998 743 586.702 729.648 664.113 779.35 722.999 795 784.694 811.397 874.592 798.974 917.998 757 954.114 722.076 957.766 654.127 987.998 614 1023.553 566.809 1078.967 562.073 1123.998 546" fill="none" stroke="#ffffff" stroke-width="6" stroke-opacity="1" stroke-linejoin="round" style="stroke-dasharray: 1030, 1032; stroke-dashoffset: 0;"/>
  <path id="path-34" d="M323.998 823 C316.297 772.819 316.136 738.347 333.998 701 360.901 644.755 418.071 601.784 468.998 590 526.702 576.648 604.113 626.35 662.999 642 724.694 658.397 814.592 645.974 857.998 604 894.114 569.076 897.766 501.127 927.998 461 963.553 413.809 1018.967 409.073 1063.998 393" fill="none" stroke="#ffffff" stroke-width="6" stroke-opacity="1" stroke-linejoin="round" style="stroke-dasharray: 1030, 1032; stroke-dashoffset: 0;"/>
  <path id="path-35" d="M954 116 L1124 546" fill="none" stroke="#ffffff" stroke-width="6" stroke-opacity="1" stroke-linejoin="round" style="stroke-dasharray: 463, 465; stroke-dashoffset: 0;"/>
  <path id="path-36" d="M814 189 L984 619" fill="none" stroke="#ffffff" stroke-width="6" stroke-opacity="1" stroke-linejoin="round" style="stroke-dasharray: 463, 465; stroke-dashoffset: 0;"/>
  <path id="path-37" d="M753 320 L923 750" fill="none" stroke="#ffffff" stroke-width="6" stroke-opacity="1" stroke-linejoin="round" style="stroke-dasharray: 463, 465; stroke-dashoffset: 0;"/>
  <path id="path-38" d="M643 370 L813 800" fill="none" stroke="#ffffff" stroke-width="6" stroke-opacity="1" stroke-linejoin="round" style="stroke-dasharray: 463, 465; stroke-dashoffset: 0;"/>
  <path id="path-39" d="M508 349 L678 779" fill="none" stroke="#ffffff" stroke-width="6" stroke-opacity="1" stroke-linejoin="round" style="stroke-dasharray: 463, 465; stroke-dashoffset: 0;"/>
  <path id="path-40" d="M341 318 L511 748" fill="none" stroke="#ffffff" stroke-width="6" stroke-opacity="1" stroke-linejoin="round" style="stroke-dasharray: 463, 465; stroke-dashoffset: 0;"/>
  <path id="path-41" d="M218 441 L387.002 867.999" fill="none" stroke="#ffffff" stroke-width="6" stroke-opacity="1" stroke-linejoin="round" style="stroke-dasharray: 460, 462; stroke-dashoffset: 0;"/>
 </g>
</svg>