<svg xmlns="http://www.w3.org/2000/svg" xmlns:xlink="http://www.w3.org/1999/xlink" width="2300px" height="2300px" viewBox="0 0 2300 2300" version="1.1">
 <!-- Generated by Pixelmator Pro 1.1.5 -->
 <g id="gear3">
  <path id="path" d="M1817.998 310.181 C1790.926 266.857 1733.859 253.682 1690.536 280.754 1647.212 307.825 1634.037 364.892 1661.109 408.216 1688.18 451.539 1745.247 464.714 1788.571 437.643 1831.894 410.571 1845.069 353.504 1817.998 310.181 Z" fill="none" stroke="#ffffff" stroke-width="6" stroke-opacity="1" stroke-linejoin="round" style="stroke-dasharray: 582, 584; stroke-dashoffset: 0;"/>
  <path id="path-1" d="M1898.562 259.838 C1843.687 172.02 1728.011 145.314 1640.193 200.189 1552.375 255.064 1525.669 370.74 1580.544 458.558 1635.419 546.376 1751.095 573.082 1838.913 518.207 1926.731 463.332 1953.437 347.656 1898.562 259.838 Z" fill="none" stroke="#ffffff" stroke-width="6" stroke-opacity="1" stroke-linejoin="round" style="stroke-dasharray: 1179, 1181; stroke-dashoffset: 0;"/>
  <path id="path-2" d="M1613.373 220.485 L1587.196 176.705 1663.943 133.464 1690.121 177.245" fill="none" stroke="#ffffff" stroke-width="6" stroke-opacity="1" stroke-linejoin="round" style="stroke-dasharray: 191, 193; stroke-dashoffset: 0;"/>
  <path id="path-3" d="M1749.376 172.056 L1762.736 123.616 1847.216 147.474 1832.477 195.596" fill="none" stroke="#ffffff" stroke-width="6" stroke-opacity="1" stroke-linejoin="round" style="stroke-dasharray: 189, 191; stroke-dashoffset: 0;"/>
  <path id="path-4" d="M1879.326 234.714 L1923.106 208.537 1967.195 284.755 1921.506 309.766" fill="none" stroke="#ffffff" stroke-width="6" stroke-opacity="1" stroke-linejoin="round" style="stroke-dasharray: 192, 194; stroke-dashoffset: 0;"/>
  <path id="path-5" d="M1928.921 368.809 L1978.74 382.488 1953.822 465.271 1905.699 450.532" fill="none" stroke="#ffffff" stroke-width="6" stroke-opacity="1" stroke-linejoin="round" style="stroke-dasharray: 189, 191; stroke-dashoffset: 0;"/>
  <path id="path-6" d="M1862.871 500.878 L1890.108 546.355 1816.753 587.476 1789.515 541.999" fill="none" stroke="#ffffff" stroke-width="6" stroke-opacity="1" stroke-linejoin="round" style="stroke-dasharray: 191, 193; stroke-dashoffset: 0;"/>
  <path id="path-7" d="M1729.942 548.566 L1717.112 597.854 1632.42 571.771 1649.067 524.814" fill="none" stroke="#ffffff" stroke-width="6" stroke-opacity="1" stroke-linejoin="round" style="stroke-dasharray: 190, 192; stroke-dashoffset: 0;"/>
  <path id="path-8" d="M1597.766 486.12 L1554.834 511.767 1511.593 435.02 1555.374 408.842" fill="none" stroke="#ffffff" stroke-width="6" stroke-opacity="1" stroke-linejoin="round" style="stroke-dasharray: 190, 192; stroke-dashoffset: 0;"/>
  <path id="path-9" d="M1550.185 349.587 L1501.533 334.001 1526.133 252.595 1573.407 267.864" fill="none" stroke="#ffffff" stroke-width="6" stroke-opacity="1" stroke-linejoin="round" style="stroke-dasharray: 186, 188; stroke-dashoffset: 0;"/>
 </g>
 <g id="gear2">
  <path id="path-10" d="M1943.209 776.836 C1918.702 724.28 1856.229 701.542 1803.672 726.049 1751.115 750.557 1728.377 813.03 1752.885 865.586 1777.392 918.143 1839.865 940.881 1892.422 916.374 1944.978 891.866 1967.717 829.393 1943.209 776.836 Z" fill="none" stroke="#ffffff" stroke-width="6" stroke-opacity="1" stroke-linejoin="round" style="stroke-dasharray: 660, 662; stroke-dashoffset: 0;"/>
  <path id="path-11" d="M2024.777 738.801 C1979.263 641.196 1863.241 598.967 1765.636 644.481 1668.031 689.995 1625.803 806.017 1671.317 903.622 1716.831 1001.227 1832.852 1043.455 1930.457 997.941 2028.063 952.427 2070.291 836.406 2024.777 738.801 Z" fill="none" stroke="#ffffff" stroke-width="6" stroke-opacity="1" stroke-linejoin="round" style="stroke-dasharray: 1226, 1228; stroke-dashoffset: 0;"/>
  <path id="path-12" d="M1877.591 1017.076 L1899.929 1067.346 1981.013 1030.639 1959.882 985.324" fill="none" stroke="#ffffff" stroke-width="6" stroke-opacity="1" stroke-linejoin="round" style="stroke-dasharray: 195, 197; stroke-dashoffset: 0;"/>
  <path id="path-13" d="M2008.104 939.667 L2055.401 960.643 2093.002 878.011 2043.47 856.973" fill="none" stroke="#ffffff" stroke-width="6" stroke-opacity="1" stroke-linejoin="round" style="stroke-dasharray: 197, 199; stroke-dashoffset: 0;"/>
  <path id="path-14" d="M2043.851 793.902 L2094.12 771.565 2059.71 688.307 2009.44 710.644" fill="none" stroke="#ffffff" stroke-width="6" stroke-opacity="1" stroke-linejoin="round" style="stroke-dasharray: 201, 203; stroke-dashoffset: 0;"/>
  <path id="path-15" d="M1965.535 663.812 L1987.901 614.764 1904.301 579.821 1884.592 629.836" fill="none" stroke="#ffffff" stroke-width="6" stroke-opacity="1" stroke-linejoin="round" style="stroke-dasharray: 199, 201; stroke-dashoffset: 0;"/>
  <path id="path-16" d="M1820.254 626.736 L1798.339 577.373 1716.893 610.938 1738.386 659.395" fill="none" stroke="#ffffff" stroke-width="6" stroke-opacity="1" stroke-linejoin="round" style="stroke-dasharray: 196, 198; stroke-dashoffset: 0;"/>
  <path id="path-17" d="M1691.07 704.63 L1639.725 684.437 1606.172 766.286 1655.282 786.417" fill="none" stroke="#ffffff" stroke-width="6" stroke-opacity="1" stroke-linejoin="round" style="stroke-dasharray: 197, 199; stroke-dashoffset: 0;"/>
  <path id="path-18" d="M1656.469 857.583 L1604.87 879.438 1638.135 955.506 1689.25 934.981" fill="none" stroke="#ffffff" stroke-width="6" stroke-opacity="1" stroke-linejoin="round" style="stroke-dasharray: 195, 197; stroke-dashoffset: 0;"/>
  <path id="path-19" d="M1731.888 979.095 L1711.273 1029.533 1793.966 1064.898 1814.943 1017.602" fill="none" stroke="#ffffff" stroke-width="6" stroke-opacity="1" stroke-linejoin="round" style="stroke-dasharray: 197, 199; stroke-dashoffset: 0;"/>
 </g>
 <g id="gear1">
  <path id="path-20" d="M1314.643 700.287 C1276.369 605.554 1168.545 559.786 1073.812 598.06 979.079 636.335 933.311 744.158 971.585 838.891 1009.86 933.624 1117.684 979.393 1212.417 941.118 1307.149 902.844 1352.918 795.02 1314.643 700.287 Z" fill="none" stroke="#ffffff" stroke-width="6" stroke-opacity="1" stroke-linejoin="round" style="stroke-dasharray: 1163, 1165; stroke-dashoffset: 0;"/>
  <path id="path-21" d="M761.875 768.311 L666.348 745.43 705.498 575.382 801.774 600.117" fill="none" stroke="#ffffff" stroke-width="6" stroke-opacity="1" stroke-linejoin="round" style="stroke-dasharray: 373, 375; stroke-dashoffset: 0;"/>
  <path id="path-22" d="M875.332 499.215 L823.233 415.646 970.917 324.7 1023.391 409.196" fill="none" stroke="#ffffff" stroke-width="6" stroke-opacity="1" stroke-linejoin="round" style="stroke-dasharray: 372, 374; stroke-dashoffset: 0;"/>
  <path id="path-23" d="M1143.644 386.495 L1165.972 292.27 1334.718 330.867 1311.285 427.696" fill="none" stroke="#ffffff" stroke-width="6" stroke-opacity="1" stroke-linejoin="round" style="stroke-dasharray: 370, 372; stroke-dashoffset: 0;"/>
  <path id="path-24" d="M1414.041 500.504 L1497.057 449.707 1586.702 596.839 1503.311 646.709" fill="none" stroke="#ffffff" stroke-width="6" stroke-opacity="1" stroke-linejoin="round" style="stroke-dasharray: 367, 369; stroke-dashoffset: 0;"/>
  <path id="path-25" d="M1523.427 771.242 L1619.506 792.821 1580.909 961.567 1483.706 937.207" fill="none" stroke="#ffffff" stroke-width="6" stroke-opacity="1" stroke-linejoin="round" style="stroke-dasharray: 372, 374; stroke-dashoffset: 0;"/>
  <path id="path-26" d="M1412.199 1040.516 L1463.923 1123.157 1315.864 1213.176 1265.994 1129.786" fill="none" stroke="#ffffff" stroke-width="6" stroke-opacity="1" stroke-linejoin="round" style="stroke-dasharray: 368, 370; stroke-dashoffset: 0;"/>
  <path id="path-27" d="M1142.389 1149.526 L1120.257 1246.908 951.314 1205.155 973.642 1110.929" fill="none" stroke="#ffffff" stroke-width="6" stroke-opacity="1" stroke-linejoin="round" style="stroke-dasharray: 371, 373; stroke-dashoffset: 0;"/>
  <path id="path-28" d="M873.489 1039.226 L789.921 1091.325 696.924 941.234 782.169 890.614" fill="none" stroke="#ffffff" stroke-width="6" stroke-opacity="1" stroke-linejoin="round" style="stroke-dasharray: 375, 377; stroke-dashoffset: 0;"/>
 </g>
 <g id="human">
  <g id="legs">
   <path id="path-29" d="M369 2034 L325 2079 440 2079 440 2034 369 2034 Z" fill="none" stroke="#ffffff" stroke-width="6" stroke-opacity="1" stroke-linejoin="round" style="stroke-dasharray: 294, 296; stroke-dashoffset: 0;"/>
   <path id="path-30" d="M566 2034 L566 2079 659 2079 631 2034 566 2034 Z" fill="none" stroke="#ffffff" stroke-width="6" stroke-opacity="1" stroke-linejoin="round" style="stroke-dasharray: 256, 258; stroke-dashoffset: 0;"/>
   <path id="path-31" d="M353 1613 L325 2034 483 2034 504 1659" fill="none" stroke="#ffffff" stroke-width="6" stroke-opacity="1" stroke-linejoin="round" style="stroke-dasharray: 956, 958; stroke-dashoffset: 0;"/>
   <path id="path-32" d="M530 1632 L531 2034 685 2034 686 1485 681 1485" fill="none" stroke="#ffffff" stroke-width="6" stroke-opacity="1" stroke-linejoin="round" style="stroke-dasharray: 1111, 1113; stroke-dashoffset: 0;"/>
  </g>
  <g id="table">
   <path id="path-33" d="M288 1445 L237 1498 450 1712 723 1436 665 1376 675 1365 642 1334 C642 1334 644.287 1315.112 638 1309 632.219 1303.38 614 1305 614 1305 L583 1274 573 1284 514 1222 380 1357" fill="none" stroke="#ffffff" stroke-width="6" stroke-opacity="1" stroke-linejoin="round" style="stroke-dasharray: 1292, 1294; stroke-dashoffset: 0;"/>
   <path id="path-34" d="M312 1467 L287 1495 450 1659 686 1421 654 1389 648 1396 553 1302 560 1294 525 1259 398 1385" fill="none" stroke="#ffffff" stroke-width="6" stroke-opacity="1" stroke-linejoin="round" style="stroke-dasharray: 1032, 1034; stroke-dashoffset: 0;"/>
   <path id="path-35" d="M561 1294 L572 1285" fill="none" stroke="#ffffff" stroke-width="6" stroke-opacity="1" stroke-linejoin="round" style="stroke-dasharray: 15, 17; stroke-dashoffset: 0;"/>
   <path id="path-36" d="M654 1389 L664 1377" fill="none" stroke="#ffffff" stroke-width="6" stroke-opacity="1" stroke-linejoin="round" style="stroke-dasharray: 16, 18; stroke-dashoffset: 0;"/>
   <path id="path-37" d="M480 1331 L480 1346 506 1339" fill="none" stroke="#ffffff" stroke-width="6" stroke-opacity="1" stroke-linejoin="round" style="stroke-dasharray: 42, 44; stroke-dashoffset: 0;"/>
   <path id="path-38" d="M453 1359 L453 1374 479 1367" fill="none" stroke="#ffffff" stroke-width="6" stroke-opacity="1" stroke-linejoin="round" style="stroke-dasharray: 42, 44; stroke-dashoffset: 0;"/>
   <path id="path-39" d="M423 1387 L423 1402 449 1395" fill="none" stroke="#ffffff" stroke-width="6" stroke-opacity="1" stroke-linejoin="round" style="stroke-dasharray: 42, 44; stroke-dashoffset: 0;"/>
   <path id="path-40" d="M506 1359 L606 1459" fill="none" stroke="#ffffff" stroke-width="6" stroke-opacity="1" stroke-linejoin="round" style="stroke-dasharray: 142, 144; stroke-dashoffset: 0;"/>
   <path id="path-41" d="M479 1381 L582 1485" fill="none" stroke="#ffffff" stroke-width="6" stroke-opacity="1" stroke-linejoin="round" style="stroke-dasharray: 147, 149; stroke-dashoffset: 0;"/>
   <path id="path-42" d="M449 1409 L552 1510" fill="none" stroke="#ffffff" stroke-width="6" stroke-opacity="1" stroke-linejoin="round" style="stroke-dasharray: 145, 147; stroke-dashoffset: 0;"/>
  </g>
  <g id="body">
   <path id="path-43" d="M676 1485 L719 1485 719 1442" fill="none" stroke="#ffffff" stroke-width="6" stroke-opacity="1" stroke-linejoin="round" style="stroke-dasharray: 86, 88; stroke-dashoffset: 0;"/>
   <path id="path-44" d="M718 1429 L717.997 1335.001 C717.997 1335.001 734.14 1343.421 755.997 1347.001 782.712 1351.377 817.497 1350.239 835.997 1339.001 867.189 1320.056 900.419 1277.235 918.997 1232.001 945.733 1166.909 950.997 1098.001 950.997 1098.001 L863.997 1098.001 800.997 1222.001 C800.997 1222.001 739.754 1095.208 685.997 1057.001 665.286 1042.281 627.149 1029.224 596.997 1024.001 572.328 1019.728 552.997 1022.001 552.997 1022.001 552.997 1022.001 548.523 1033.79 539.997 1043 533.566 1049.948 523.997 1054.953 516.997 1055.001 509.065 1055.055 498.048 1047.92 490.997 1040 483.359 1031.421 479.997 1022.001 479.997 1022.001 479.997 1022.001 417.687 1029.24 366.998 1059 322.047 1085.391 289.269 1132.129 271.997 1168 254.741 1203.84 230.564 1261.536 236.998 1314 245.53 1383.545 288.997 1445.001 288.997 1445.001 L372.997 1527.001 464.997 1456.001 C464.997 1456.001 428.382 1426.586 412.999 1409 399.425 1393.481 379 1358 379 1358" fill="none" stroke="#ffffff" stroke-width="6" stroke-opacity="1" stroke-linejoin="round" style="stroke-dasharray: 2089, 2091; stroke-dashoffset: 0;"/>
   <g id="hand1">
    <path id="path-45" d="M388 1516 L452 1591 505 1549 479 1519" fill="none" stroke="#ffffff" stroke-width="6" stroke-opacity="1" stroke-linejoin="round" style="stroke-dasharray: 206, 208; stroke-dashoffset: 0;"/>
    <path id="path-46" d="M453 1468 L507 1526 497 1535" fill="none" stroke="#ffffff" stroke-width="6" stroke-opacity="1" stroke-linejoin="round" style="stroke-dasharray: 93, 95; stroke-dashoffset: 0;"/>
    <path id="path-47" d="M467 1529 L493 1557" fill="none" stroke="#ffffff" stroke-width="6" stroke-opacity="1" stroke-linejoin="round" style="stroke-dasharray: 39, 41; stroke-dashoffset: 0;"/>
    <path id="path-48" d="M455 1540 L480 1568" fill="none" stroke="#ffffff" stroke-width="6" stroke-opacity="1" stroke-linejoin="round" style="stroke-dasharray: 38, 40; stroke-dashoffset: 0;"/>
    <path id="path-49" d="M442 1551 L466 1578" fill="none" stroke="#ffffff" stroke-width="6" stroke-opacity="1" stroke-linejoin="round" style="stroke-dasharray: 37, 39; stroke-dashoffset: 0;"/>
   </g>
   <path id="path-50" d="M363 1240 C363 1240 351.917 1269.91 352 1286 352.086 1302.816 364 1336 364 1336" fill="none" stroke="#ffffff" stroke-width="6" stroke-opacity="1" stroke-linejoin="round" style="stroke-dasharray: 100, 102; stroke-dashoffset: 0;"/>
   <path id="path-51" d="M717 1237 L718 1333" fill="none" stroke="#ffffff" stroke-width="6" stroke-opacity="1" stroke-linejoin="round" style="stroke-dasharray: 97, 99; stroke-dashoffset: 0;"/>
   <path id="path-52" d="M941 1099 L981 1085 1017 1029 1003 1019 975 1046 919 1044 945 1033 936 1017 888 1040 C888 1040 881.864 1044.797 877 1052 874.143 1056.23 872.093 1062.328 871 1066 868.05 1075.903 871 1097 871 1097 L941 1099 Z" fill="none" stroke="#ffffff" stroke-width="6" stroke-opacity="1" stroke-linejoin="round" style="stroke-dasharray: 454, 456; stroke-dashoffset: 0;"/>
  </g>
  <g id="head">
   <path id="path-53" d="M544.999 925.002 C544.999 925.002 553.564 905.934 546.999 892.001 541.407 880.131 521.499 873.185 511.999 872.002 499.834 870.487 479.208 876.872 468.999 890.001 458.791 903.13 458.999 923.002 458.999 923.002 458.999 923.002 459.875 942.749 471 956 479.741 966.412 497.485 970.812 507.999 972.002 523.449 973.749 550.999 949.002 550.999 949.002" fill="none" stroke="#ffffff" stroke-width="6" stroke-opacity="1" stroke-linejoin="round" style="stroke-dasharray: 286, 288; stroke-dashoffset: 0;"/>
   <path id="path-54" d="M545 925.001 L545 927 C545 927 558.668 917.13 568 918.001 577.331 918.873 582.325 928.487 583 935.001 583.541 940.228 577.142 950.624 570 953.001 561.946 955.68 553 950.001 553 950.001" fill="none" stroke="#ffffff" stroke-width="6" stroke-opacity="1" stroke-linejoin="round" style="stroke-dasharray: 93, 95; stroke-dashoffset: 0;"/>
   <path id="path-55" d="M480 1024 L480 966" fill="none" stroke="#ffffff" stroke-width="6" stroke-opacity="1" stroke-linejoin="round" style="stroke-dasharray: 58, 60; stroke-dashoffset: 0;"/>
   <path id="path-56" d="M551 1024 L551 955" fill="none" stroke="#ffffff" stroke-width="6" stroke-opacity="1" stroke-linejoin="round" style="stroke-dasharray: 69, 71; stroke-dashoffset: 0;"/>
   <path id="path-57" d="M484 878 L538 814 591 855 585 868 597 863 620 885 583 925" fill="none" stroke="#ffffff" stroke-width="6" stroke-opacity="1" stroke-linejoin="round" style="stroke-dasharray: 265, 267; stroke-dashoffset: 0;"/>
   <path id="path-58" d="M567 934 C567 934 560.175 930.787 557 932 553.886 933.19 551 940 551 940" fill="none" stroke="#ffffff" stroke-width="6" stroke-opacity="1" stroke-linejoin="round" style="stroke-dasharray: 21, 23; stroke-dashoffset: 0;"/>
  </g>
 </g>
 <path id="path-59" d="M684.999 1953 L1142.998 1950" fill="none" stroke="#ffffff" stroke-width="6" stroke-opacity="1" stroke-linejoin="round" style="stroke-dasharray: 459, 461; stroke-dashoffset: 0;"/>
 <path id="path-60" d="M1893 1947.001 L2019.998 1947" fill="none" stroke="#ffffff" stroke-width="6" stroke-opacity="1" stroke-linejoin="round" style="stroke-dasharray: 127, 129; stroke-dashoffset: 0;"/>
 <path id="path-61" d="M489 1953 L530 1952.998" fill="none" stroke="#ffffff" stroke-width="6" stroke-opacity="1" stroke-linejoin="round" style="stroke-dasharray: 41, 43; stroke-dashoffset: 0;"/>
 <path id="path-62" d="M236 1953 L329 1952.998" fill="none" stroke="#ffffff" stroke-width="6" stroke-opacity="1" stroke-linejoin="round" style="stroke-dasharray: 93, 95; stroke-dashoffset: 0;"/>
 <path id="path-63" d="M1520 1300 L1086.987 2049.999 1953.013 2050 Z" fill="none" stroke="#ffffff" stroke-width="6" stroke-opacity="1" stroke-linejoin="round" style="stroke-dasharray: 2599, 2601; stroke-dashoffset: 0;"/>
 <path id="path-64" d="M1520 1500 L1260.192 1949.999 1779.808 1950 Z" fill="none" stroke="#ffffff" stroke-width="6" stroke-opacity="1" stroke-linejoin="round" style="stroke-dasharray: 1559, 1561; stroke-dashoffset: 0;"/>
 <path id="path-65" d="M1549 1728.5 C1549 1673.548 1536.688 1629 1521.5 1629 1506.312 1629 1494 1673.548 1494 1728.5 1494 1783.452 1506.312 1828 1521.5 1828 1536.688 1828 1549 1783.452 1549 1728.5 Z" fill="none" stroke="#ffffff" stroke-width="6" stroke-opacity="1" stroke-linejoin="round" style="stroke-dasharray: 432, 434; stroke-dashoffset: 0;"/>
 <path id="path-66" d="M1547 1876 C1547 1862.193 1535.807 1851 1522 1851 1508.193 1851 1497 1862.193 1497 1876 1497 1889.807 1508.193 1901 1522 1901 1535.807 1901 1547 1889.807 1547 1876 Z" fill="none" stroke="#ffffff" stroke-width="6" stroke-opacity="1" stroke-linejoin="round" style="stroke-dasharray: 158, 160; stroke-dashoffset: 0;"/>
 <path id="path-67" d="M951.995 1098.005 C951.995 1098.005 988.916 1121.807 1044 1137 1085.554 1148.461 1138.443 1153.306 1187.995 1149.005 1298.712 1139.389 1412.105 1055.214 1457.991 986.009 1481.807 950.09 1515.244 874.3 1519.994 804.006 1522.504 766.872 1525.212 736.919 1519.999 708.001 1513.628 672.656 1498.639 641.737 1496.999 637.001 1471.84 564.363 1423.72 502.201 1367.999 463.001 1328.378 435.128 1275.057 406.096 1219.998 397.002 1172.028 389.078 1118.661 386.527 1068.996 396.004 997.527 409.642 926.217 447.215 882.996 493.004 858.275 519.194 824.42 556.371 803.997 601.003 793.518 623.903 782.411 647.618 775.997 672.003 763.55 719.338 761.719 768.474 766.992 814.008 772.425 860.879 788.882 910.232 807.998 947.002 840.547 1009.61 879.995 1046.005 879.995 1046.005" fill="none" stroke="#ffffff" stroke-width="6" stroke-opacity="1" stroke-linejoin="round" style="stroke-dasharray: 2300, 2302; stroke-dashoffset: 0;"/>
</svg>