<svg xmlns="http://www.w3.org/2000/svg" xmlns:xlink="http://www.w3.org/1999/xlink" width="2300px" height="2300px" viewBox="0 0 2300 2300" version="1.1">
 <!-- Generated by Pixelmator Pro 1.1.5 -->
 <g id="airplane---right">
  <path id="path" d="M1817 400 L1817 400 1985 386 1945 343 1817 400 Z" fill="none" stroke="#ffffff" stroke-width="6" stroke-opacity="1" stroke-linejoin="round" style="stroke-dasharray: 368, 370; stroke-dashoffset: 0;"/>
  <path id="path-1" d="M1928 352 L1928 332 1819 400 1906 313 1928 331" fill="none" stroke="#ffffff" stroke-width="6" stroke-opacity="1" stroke-linejoin="round" style="stroke-dasharray: 300, 302; stroke-dashoffset: 0;"/>
 </g>
 <g id="airplane---left">
  <path id="path-2" d="M656 296 L656 296 532 235 486 276 656 296 Z" fill="none" stroke="#ffffff" stroke-width="6" stroke-opacity="1" stroke-linejoin="round" style="stroke-dasharray: 371, 373; stroke-dashoffset: 0;"/>
  <path id="path-3" d="M656 296 L656 296 563 208 548 221 548 240" fill="none" stroke="#ffffff" stroke-width="6" stroke-opacity="1" stroke-linejoin="round" style="stroke-dasharray: 167, 169; stroke-dashoffset: 0;"/>
 </g>
 <path id="path-4" d="M336 1942 L1928 1942" fill="none" stroke="#ffffff" stroke-width="6" stroke-opacity="1" stroke-linejoin="round" style="stroke-dasharray: 1592, 1594; stroke-dashoffset: 0;"/>
 <g id="flower---left">
  <path id="path-5" d="M289 1245 L656 1942" fill="none" stroke="#ffffff" stroke-width="6" stroke-opacity="1" stroke-linejoin="round" style="stroke-dasharray: 788, 790; stroke-dashoffset: 0;"/>
  <path id="path-6" d="M311 1409 L310 1409 393 1443" fill="none" stroke="#ffffff" stroke-width="6" stroke-opacity="1" stroke-linejoin="round" style="stroke-dasharray: 91, 93; stroke-dashoffset: 0;"/>
  <path id="path-7" d="M441 1534 L465 1407" fill="none" stroke="#ffffff" stroke-width="6" stroke-opacity="1" stroke-linejoin="round" style="stroke-dasharray: 130, 132; stroke-dashoffset: 0;"/>
  <path id="path-8" d="M455 1761 L570 1780" fill="none" stroke="#ffffff" stroke-width="6" stroke-opacity="1" stroke-linejoin="round" style="stroke-dasharray: 117, 119; stroke-dashoffset: 0;"/>
  <path id="path-9" d="M430 1331 C430 1331 415.598 1330.353 404.994 1290.006 400.211 1271.808 404.286 1247.067 400.994 1223.006 396.055 1186.916 382.971 1151.686 365.994 1137.007 328.553 1104.632 220.994 1105.007 220.994 1105.007 220.994 1105.007 196.135 1130.223 180 1163 166.798 1189.819 161.53 1222.323 162.994 1245.006 166.428 1298.11 246.211 1337.893 279.995 1390.005 301.963 1423.892 241.318 1488.285 265.995 1534.005 289.203 1577.003 352.415 1602.579 386.996 1645.004 403.726 1665.531 386.337 1700.757 379.997 1739.003 375.015 1769.053 379.884 1801.824 392.996 1825.004 426.602 1884.41 539.999 1906.001 539.999 1906.001 539.999 1906.001 549.37 1908.32 559.999 1910.001 575.294 1912.42 596.961 1912.145 609.997 1909.002 617.849 1907.109 630.264 1902.873 638.998 1897.002 649.673 1889.826 655.994 1881.007 655.994 1881.007" fill="none" stroke="#ffffff" stroke-width="6" stroke-opacity="1" stroke-linejoin="round" style="stroke-dasharray: 1506, 1508; stroke-dashoffset: 0;"/>
 </g>
 <g id="flower---right">
  <path id="path-10" d="M2021 1405 L1928 1441" fill="none" stroke="#ffffff" stroke-width="6" stroke-opacity="1" stroke-linejoin="round" style="stroke-dasharray: 100, 102; stroke-dashoffset: 0;"/>
  <path id="path-11" d="M1863 1409 L1882 1523" fill="none" stroke="#ffffff" stroke-width="6" stroke-opacity="1" stroke-linejoin="round" style="stroke-dasharray: 116, 118; stroke-dashoffset: 0;"/>
  <path id="path-12" d="M1863 1764 L1747 1781" fill="none" stroke="#ffffff" stroke-width="6" stroke-opacity="1" stroke-linejoin="round" style="stroke-dasharray: 118, 120; stroke-dashoffset: 0;"/>
  <path id="path-13" d="M2043 1234 L1672 1912" fill="none" stroke="#ffffff" stroke-width="6" stroke-opacity="1" stroke-linejoin="round" style="stroke-dasharray: 773, 775; stroke-dashoffset: 0;"/>
  <path id="path-14" d="M1899 1322 C1899 1322 1921.347 1299.812 1928 1264.006 1935.81 1221.973 1932.707 1159.883 1958 1137.006 1974.738 1121.867 2005.194 1109.27 2035 1105.005 2076.161 1099.116 2116 1105.006 2116 1105.006 2116 1105.006 2173.851 1179.507 2172 1223.005 2170.847 1250.102 2164.29 1280.53 2138 1304.004 2112.741 1326.557 2067.961 1342.066 2055 1372.004 2034.897 1418.439 2084.669 1486.25 2061 1534.003 2036.782 1582.863 1966.152 1599.067 1928 1645 1917.194 1658.01 1922.14 1687.459 1928 1710.002 1937.166 1745.26 1951.522 1786.192 1934 1816.002 1895.924 1880.782 1770 1912.001 1770 1912.001 1770 1912.001 1716.115 1921.718 1692 1912.001 1669.26 1902.838 1639 1861.006 1639 1861.006" fill="none" stroke="#ffffff" stroke-width="6" stroke-opacity="1" stroke-linejoin="round" style="stroke-dasharray: 1559, 1561; stroke-dashoffset: 0;"/>
 </g>
 <g id="africa">
  <path id="path-15" d="M1664.999 1549.001 C1656.076 1529.068 1681.266 1507.773 1682.999 1486.001 1683.664 1477.635 1678.394 1469.24 1679.999 1461.001 1682.109 1450.165 1686.217 1437.121 1695.999 1432.001 1707.577 1425.941 1726.243 1426.3 1735 1436 1749.071 1451.589 1734.999 1499.001 1734.999 1499.001 1734.999 1499.001 1720.212 1556.78 1695.999 1564.001 1684.998 1567.281 1669.689 1559.479 1664.999 1549.001 Z" fill="none" stroke="#ffffff" stroke-width="6" stroke-opacity="1" stroke-linejoin="round" style="stroke-dasharray: 349, 351; stroke-dashoffset: 0;"/>
  <path id="path-16" d="M1332 1122 C1332 1122 1310.066 1068.343 1305.999 1044 1303.471 1028.862 1304 995 1304 995" fill="none" stroke="#ffffff" stroke-width="6" stroke-opacity="1" stroke-linejoin="round" style="stroke-dasharray: 132, 134; stroke-dashoffset: 0;"/>
  <path id="path-17" d="M1856 814 C1856 814 1867.011 867.174 1861.998 916 1860.136 934.141 1857.047 952.126 1850.999 968 1848.906 973.492 1846.663 979.109 1843.999 984 1843.204 985.461 1841.366 986.635 1840.999 988 1835.731 1007.589 1811.418 995.097 1787.998 996 1769.596 996.709 1751.187 1010.517 1740.997 1022 1700.745 1067.359 1766.451 1156.973 1756.997 1235 1747.158 1316.212 1658 1389 1658 1389" fill="none" stroke="#ffffff" stroke-width="6" stroke-opacity="1" stroke-linejoin="round" style="stroke-dasharray: 699, 701; stroke-dashoffset: 0;"/>
  <path id="path-18" d="M1532 499 C1532 499 1587.008 471.384 1613 479 1625.508 482.665 1644.105 489.102 1658 497 1688.927 514.581 1716.274 540.393 1741 566 1777.937 604.255 1828 704 1828 704" fill="none" stroke="#ffffff" stroke-width="6" stroke-opacity="1" stroke-linejoin="round" style="stroke-dasharray: 406, 408; stroke-dashoffset: 0;"/>
  <path id="path-19" d="M1285.999 547.002 C1288.56 542.396 1293.884 539.276 1298.999 538.002 1304.535 536.622 1315.999 540.002 1315.999 540.002 1315.999 540.002 1330.406 534.371 1337.999 534.002 1351.847 533.329 1371.544 529.312 1378.999 541.002 1381.042 544.206 1376.143 548.204 1375.999 552.002 1375.662 560.821 1382.004 569.234 1380.999 578.002 1380.251 584.525 1378.73 592.799 1372.999 596.001 1353.327 606.992 1326.316 596.748 1305.999 587.002 1297.283 582.821 1288.584 575.979 1285 567.002 1282.524 560.803 1282.754 552.835 1285.999 547.002 Z" fill="none" stroke="#ffffff" stroke-width="6" stroke-opacity="1" stroke-linejoin="round" style="stroke-dasharray: 280, 282; stroke-dashoffset: 0;"/>
 </g>
 <g id="legs---w">
  <path id="path-20" d="M659.999 1886 L711.999 1887 852.999 1129 656.999 1129 C656.999 1129 650.461 1139.177 646 1153 641.714 1166.281 639.51 1182.996 638.999 1194 637.335 1229.858 657.999 1300 657.999 1300 L659.999 1886 Z" fill="none" stroke="#ffffff" stroke-width="6" stroke-opacity="1" stroke-linejoin="round" style="stroke-dasharray: 1782, 1784; stroke-dashoffset: 0;"/>
  <path id="path-21" d="M871 1129 L908 1887 853 1887 778 1537 853 1129 871 1129 Z" fill="none" stroke="#ffffff" stroke-width="6" stroke-opacity="1" stroke-linejoin="round" style="stroke-dasharray: 1605, 1607; stroke-dashoffset: 0;"/>
  <path id="path-22" d="M666 1938 L734 1940 734 1930 702 1910 702 1887 665 1887 666 1938 Z" fill="none" stroke="#ffffff" stroke-width="6" stroke-opacity="1" stroke-linejoin="round" style="stroke-dasharray: 227, 229; stroke-dashoffset: 0;"/>
  <path id="path-23" d="M866 1940 L950 1940 950 1931 901 1900 900 1887 864 1887 866 1940 Z" fill="none" stroke="#ffffff" stroke-width="6" stroke-opacity="1" stroke-linejoin="round" style="stroke-dasharray: 254, 256; stroke-dashoffset: 0;"/>
 </g>
 <g id="earth-2">
  <path id="path-24" d="M904 1791.002 C904 1791.002 946.952 1807.625 999.999 1820.001 1043.402 1830.126 1094.423 1836.215 1126.999 1838.001 1157.378 1839.666 1201.77 1838.812 1240 1834 1299.795 1826.473 1349.998 1812.998 1349.998 1812.998" fill="none" stroke="#ffffff" stroke-width="6" stroke-opacity="1" stroke-linejoin="round" style="stroke-dasharray: 455, 457; stroke-dashoffset: 0;"/>
  <path id="path-25" d="M1442 1783 C1442 1783 1475.057 1771.973 1491 1765 1506.434 1758.251 1541 1739 1541 1739" fill="none" stroke="#ffffff" stroke-width="6" stroke-opacity="1" stroke-linejoin="round" style="stroke-dasharray: 109, 111; stroke-dashoffset: 0;"/>
  <path id="path-26" d="M1892.998 758.002 C1892.998 758.002 1933.325 853.756 1945 971 1954.945 1070.875 1938.621 1187.425 1917.999 1262.001 1897.993 1334.347 1860.055 1430.836 1801.999 1509.001 1733.847 1600.76 1645.993 1668.998 1645.993 1668.998" fill="none" stroke="#ffffff" stroke-width="6" stroke-opacity="1" stroke-linejoin="round" style="stroke-dasharray: 1012, 1014; stroke-dashoffset: 0;"/>
  <path id="path-27" d="M1885 740 L1879 728" fill="none" stroke="#ffffff" stroke-width="6" stroke-opacity="1" stroke-linejoin="round" style="stroke-dasharray: 14, 16; stroke-dashoffset: 0;"/>
  <path id="path-28" d="M1868.996 710.004 C1868.996 710.004 1830.982 624.296 1753.998 536.002 1680.034 451.17 1569.779 364.713 1437.998 313.002 1306.826 261.531 1141.646 253.276 997.999 284.001 880.469 309.14 778.622 363.733 710.997 414.003 644.114 463.722 561.92 535.688 500.999 634.001 420.245 764.322 370.675 933.359 382.997 1084.003 392.018 1194.272 415.018 1311.012 462 1401 541.996 1554.223 658.989 1649.99 658.989 1649.99" fill="none" stroke="#ffffff" stroke-width="6" stroke-opacity="1" stroke-linejoin="round" style="stroke-dasharray: 2791, 2793; stroke-dashoffset: 0;"/>
  <path id="path-29" d="M745 1713 C745 1713 768.879 1727.542 782 1735 795.876 1742.889 824.999 1758 824.999 1758" fill="none" stroke="#ffffff" stroke-width="6" stroke-opacity="1" stroke-linejoin="round" style="stroke-dasharray: 92, 94; stroke-dashoffset: 0;"/>
 </g>
 <path id="path-30" d="M853.994 413.004 C849.67 401.494 853.848 396.836 870.992 383.004 891.946 366.098 930.867 350.668 969.992 334.004 1038.338 304.894 1128.832 295.12 1186.992 296.004 1213.498 296.407 1258.384 299.853 1288 314 1314.263 326.545 1326.992 350.004 1326.992 350.004 1326.992 350.004 1297.207 361.391 1267.999 380.001 1245.964 394.041 1225.059 413.2 1212.998 429.002 1202.731 442.454 1191.065 463.609 1183.999 485.001 1172.471 519.903 1168.56 554.992 1168.56 554.992 1168.56 554.992 1161.718 591.63 1149.997 605.003 1141.544 614.647 1115.995 623.004 1115.995 623.004 1115.995 623.004 1104.332 624.919 1093.996 616.004 1089.852 612.428 1085.308 607.064 1081.997 601.003 1078.551 594.695 1076.376 587.686 1073.995 584.004 1059.284 561.255 1063.997 523.886 1058.996 494.004 1053.994 464.122 1039.278 441.727 1021.993 430.004 1007.598 420.242 986 422.877 962.994 424.004 939.048 425.176 913.575 425.068 892.993 426.004 868.259 427.129 859.12 426.632 853.994 413.004 Z" fill="none" stroke="#ffffff" stroke-width="6" stroke-opacity="1" stroke-linejoin="round" style="stroke-dasharray: 1301, 1303; stroke-dashoffset: 0;"/>
 <g id="n---america">
  <path id="path-31" d="M645.997 1081 C645.997 1081 632.023 1056.158 598.999 1035.001 558.637 1009.142 495.267 982.763 461.999 939.001 437.293 906.502 434.258 864.234 436.998 833.003 444.27 750.132 513.986 636.23 603 560 634.275 533.217 677.454 516.607 707.998 500.002 776.992 462.495 847.997 490.003 847.997 490.003" fill="none" stroke="#ffffff" stroke-width="6" stroke-opacity="1" stroke-linejoin="round" style="stroke-dasharray: 938, 940; stroke-dashoffset: 0;"/>
  <path id="path-32" d="M829 512 L848 491" fill="none" stroke="#ffffff" stroke-width="6" stroke-opacity="1" stroke-linejoin="round" style="stroke-dasharray: 29, 31; stroke-dashoffset: 0;"/>
  <path id="path-33" d="M737 687 L737 686 C737 686 724.986 671.446 721 663 716.27 652.98 712 631 712 631" fill="none" stroke="#ffffff" stroke-width="6" stroke-opacity="1" stroke-linejoin="round" style="stroke-dasharray: 63, 65; stroke-dashoffset: 0;"/>
  <path id="path-34" d="M839 695 C839 695 883.319 648.311 931 637 968.464 628.112 1009.21 650.025 1024 673 1068.526 742.172 896 884 896 884" fill="none" stroke="#ffffff" stroke-width="6" stroke-opacity="1" stroke-linejoin="round" style="stroke-dasharray: 478, 480; stroke-dashoffset: 0;"/>
 </g>
 <g id="s---america">
  <path id="path-35" d="M878 1051 C878 1051 954.952 1047.436 1004.999 1084 1063.751 1126.924 1066.232 1168.74 1096.999 1211 1106.966 1224.691 1128.352 1229.641 1126.998 1252 1122.318 1329.274 977.615 1314.576 927.998 1374 905.464 1400.988 888 1476 888 1476" fill="none" stroke="#ffffff" stroke-width="6" stroke-opacity="1" stroke-linejoin="round" style="stroke-dasharray: 700, 702; stroke-dashoffset: 0;"/>
  <path id="path-36" d="M895 1616 C895 1616 917.212 1654.854 914 1674 912.654 1682.026 900 1694 900 1694" fill="none" stroke="#ffffff" stroke-width="6" stroke-opacity="1" stroke-linejoin="round" style="stroke-dasharray: 87, 89; stroke-dashoffset: 0;"/>
  <path id="path-37" d="M799 1636 L767 1610" fill="none" stroke="#ffffff" stroke-width="6" stroke-opacity="1" stroke-linejoin="round" style="stroke-dasharray: 42, 44; stroke-dashoffset: 0;"/>
 </g>
 <g id="body---w">
  <path id="path-38" d="M639 1129 L877 1129 875 955 887 871 C887 871 897.856 867.982 905 860 910.845 853.469 913.121 842.572 914 836 915.567 824.278 904.759 810.278 898 796 888.274 775.454 881 756 881 756" fill="none" stroke="#ffffff" stroke-width="6" stroke-opacity="1" stroke-linejoin="round" style="stroke-dasharray: 632, 634; stroke-dashoffset: 0;"/>
  <path id="path-39" d="M807 661 L807 661 807 687 874 716 C874 716 883.608 722.449 887 727 890.479 731.668 894 743 894 743 L894 784" fill="none" stroke="#ffffff" stroke-width="6" stroke-opacity="1" stroke-linejoin="round" style="stroke-dasharray: 175, 177; stroke-dashoffset: 0;"/>
  <path id="path-40" d="M743.999 650.013 L743.999 686.013 654.999 716.013 C654.999 716.013 633.088 723.294 624.999 731.013 618.089 737.606 610.999 756.013 610.999 756.013 L610 986.013 C610 986.013 610.289 995.996 615.999 1005.012 620.864 1012.693 630.634 1019.348 636.999 1022.013 642.395 1024.26 651.508 1024.662 658.999 1023.012 667.447 1021.138 673.999 1017.013 673.999 1017.013 L815.999 877.013 850.999 861.013 C850.999 861.013 855.662 859.008 856.999 857.011 857.945 855.599 858.79 853.516 857.999 852.011 856.817 849.764 853.487 847.51 851 847 849.041 846.599 845 848 845 848 L817.999 857.013 C817.999 857.013 811.411 860.292 810 858.005 808.739 855.962 812 851.002 812 851.002 L843 823.001 C843 823.001 846.278 819.744 847 818.001 848.402 814.613 849.766 810.307 848 808.009 846.446 805.987 842.488 804.618 839 805.007 834.737 805.484 832 809.001 832 809.001 L803 837.001 C803 837.001 796.444 841.71 794 840.005 791.527 838.279 794.999 831.013 794.999 831.013 L813.999 804.013 C813.999 804.013 816.533 800.733 817 797.006 817.398 793.831 815.938 790.247 814 789.007 812.07 787.773 808.674 788.284 806 790.006 803.104 791.871 800.999 795.013 800.999 795.013 L776.999 829.013 C776.999 829.013 774.793 833.579 773 833.004 771.072 832.385 771.999 827.013 771.999 827.013 L770.999 810.013 C770.999 810.013 770.288 806.567 768 804.002 766.475 802.293 763.689 801.171 762 801.003 760.277 800.833 757.762 801.523 756 803.002 754.091 804.604 752.999 807.013 752.999 807.013 L743.999 858.013 626.999 948.013" fill="none" stroke="#ffffff" stroke-width="6" stroke-opacity="1" stroke-linejoin="round" style="stroke-dasharray: 1316, 1318; stroke-dashoffset: 0;"/>
  <path id="path-41" d="M611 940 L611 940 635.04 940.002 635.04 940.002" fill="none" stroke="#ffffff" stroke-width="6" stroke-opacity="1" stroke-linejoin="round" style="stroke-dasharray: 25, 27; stroke-dashoffset: 0;"/>
  <path id="path-42" d="M695 792 L695 792 696 891" fill="none" stroke="#ffffff" stroke-width="6" stroke-opacity="1" stroke-linejoin="round" style="stroke-dasharray: 100, 102; stroke-dashoffset: 0;"/>
  <path id="path-43" d="M725 696.001 C725 696.001 769.974 726.294 795 724.001 801.415 723.413 812.051 720.962 819 716 828.212 709.423 833 700.001 833 700.001" fill="none" stroke="#ffffff" stroke-width="6" stroke-opacity="1" stroke-linejoin="round" style="stroke-dasharray: 124, 126; stroke-dashoffset: 0;"/>
  <path id="path-44" d="M894 868.001 L894 868.001 894 940.001 913 940.001 999 822.001 C999 822.001 1004.552 816.057 1008 814.001 1011.35 812.003 1019 810.001 1019 810.001 L1112 810.001 C1112 810.001 1113.873 810.815 1115 812.001 1116.173 813.235 1116.609 814.864 1117 816.001 1117.872 818.543 1116 823.001 1116 823.001 L1034 940.001 1023 930.001 C1023 930.001 1017.279 926.16 1014 926.001 1010.841 925.849 1005 929.001 1005 929.001 L988 950.001 C988 950.001 985.16 954.468 985 957.001 984.846 959.423 987 964.001 987 964.001 L1007 979.001 C1007 979.001 1009.072 980.695 1011 982 1012.78 983.204 1014.353 984.028 1016 984.001 1019.886 983.936 1026 978.001 1026 978.001 L1060 933.001 C1060 933.001 1063.441 924.187 1061 921.001 1058.733 918.043 1050 919.001 1050 919.001" fill="none" stroke="#ffffff" stroke-width="6" stroke-opacity="1" stroke-linejoin="round" style="stroke-dasharray: 717, 719; stroke-dashoffset: 0;"/>
  <path id="path-45" d="M913 940 L879 986 C879 986 876.392 991.897 877 995 877.59 998.016 882 1002 882 1002 L976 1002 C976 1002 982.212 999.734 985 998 987.21 996.625 991 993 991 993 L1002 980" fill="none" stroke="#ffffff" stroke-width="6" stroke-opacity="1" stroke-linejoin="round" style="stroke-dasharray: 204, 206; stroke-dashoffset: 0;"/>
  <path id="path-46" d="M894 931 L881 931" fill="none" stroke="#ffffff" stroke-width="6" stroke-opacity="1" stroke-linejoin="round" style="stroke-dasharray: 13, 15; stroke-dashoffset: 0;"/>
  <path id="path-47" d="M990 994 L1006 994 1006 983" fill="none" stroke="#ffffff" stroke-width="6" stroke-opacity="1" stroke-linejoin="round" style="stroke-dasharray: 27, 29; stroke-dashoffset: 0;"/>
  <path id="path-48" d="M876 1024 L960 1003" fill="none" stroke="#ffffff" stroke-width="6" stroke-opacity="1" stroke-linejoin="round" style="stroke-dasharray: 87, 89; stroke-dashoffset: 0;"/>
  <path id="path-49" d="M635 1129 L659 1024" fill="none" stroke="#ffffff" stroke-width="6" stroke-opacity="1" stroke-linejoin="round" style="stroke-dasharray: 108, 110; stroke-dashoffset: 0;"/>
  <path id="path-50" d="M994 920 L1019 892 C1019 892 1019.66 896.251 1018 901 1016.847 904.301 1013.735 908.011 1012 910 1010.196 912.069 1007.24 915.328 1004 917 999.141 919.508 994 920 994 920 Z M993.999 919 C993.999 919 993.644 915.199 994.999 911 996.2 907.276 998.987 903.26 1000.999 901 1003.215 898.51 1007.183 894.667 1011 893 1014.524 891.462 1017.999 892 1017.999 892 L993.999 919 Z" fill="#ffffff" fill-opacity="1" stroke="#ffffff" stroke-width="6" stroke-opacity="1" stroke-linejoin="round" style="stroke-dasharray: 155, 157; stroke-dashoffset: 0;"/>
 </g>
 <g id="head---w">
  <path id="path-51" d="M762.993 650.003 C762.993 650.003 737.449 648.874 720.997 637.003 717.138 634.218 713.937 631.564 710.996 628.004 707.301 623.529 703.849 617.554 700.999 612.001 698.858 607.831 697.15 602.653 696.999 598.001 696.815 592.307 695.448 586.761 695 581 694.406 573.364 694.837 565.51 695.996 558.004 697.223 550.066 699.134 541.031 701.996 534.004 706.666 522.539 714.599 513.01 720.993 508.006 735.65 496.535 766.377 484.708 790.993 493.006 804.778 497.653 818.755 504.732 827.994 513.006 839.752 523.537 844.993 535.006 844.993 535.006" fill="none" stroke="#ffffff" stroke-width="6" stroke-opacity="1" stroke-linejoin="round" style="stroke-dasharray: 334, 336; stroke-dashoffset: 0;"/>
  <path id="path-52" d="M823.584 635.099 C818.978 634.973 814.029 630.678 811 624.999 806.385 616.346 805 605.001 805 605.001 L810.07 604.126 834 600.001 C834 600.001 836.876 632.985 825 635.001 824.533 635.08 824.06 635.112 823.584 635.099 Z" fill="none" stroke="#ffffff" stroke-width="6" stroke-opacity="1" stroke-linejoin="round" style="stroke-dasharray: 108, 110; stroke-dashoffset: 0;"/>
  <path id="path-53" d="M697 549 C697 549 693.729 547.448 687.999 552 683.497 555.576 681.286 562.757 680.999 567 680.668 571.898 683.361 578.292 687.999 583 693.445 588.527 695 589 695 589" fill="none" stroke="#ffffff" stroke-width="6" stroke-opacity="1" stroke-linejoin="round" style="stroke-dasharray: 55, 57; stroke-dashoffset: 0;"/>
  <path id="path-54" d="M692 587 C692 587 694.526 594.334 694 603 693.534 610.685 690.165 619.419 688 625 677.571 651.88 635.541 674.804 614 700 599.031 717.509 601 743 601 743" fill="none" stroke="#ffffff" stroke-width="6" stroke-opacity="1" stroke-linejoin="round" style="stroke-dasharray: 192, 194; stroke-dashoffset: 0;"/>
  <path id="path-55" d="M684.998 551.001 L683.998 551.001 C683.998 551.001 662.211 537.573 644.998 544.001 632.862 548.534 617.247 557.633 606.999 569 596.332 580.833 591.175 595.044 585.998 605.001 575.967 624.296 566.308 660.88 571.999 689 574.695 702.318 577.473 715.959 583 725 590.633 737.486 600.998 743 600.998 743" fill="none" stroke="#ffffff" stroke-width="6" stroke-opacity="1" stroke-linejoin="round" style="stroke-dasharray: 280, 282; stroke-dashoffset: 0;"/>
  <path id="path-56" d="M845 536 C845 536 784.36 557.255 768.226 582.569 767.453 583.781 764.225 590.835 763.307 597.432 762.461 603.521 764.013 609.186 761.337 610.312 753.594 613.571 745.578 593.172 736.73 591.486 732.208 590.625 725.33 595.718 721.968 601.395 719.727 605.18 720.054 609.605 719.997 611.303 719.812 616.779 725.634 624.749 733.778 627.156 737.611 628.289 742.808 623.019 746.574 625.174 755.094 630.053 764 650 764 650" fill="none" stroke="#ffffff" stroke-width="6" stroke-opacity="1" stroke-linejoin="round" style="stroke-dasharray: 248, 250; stroke-dashoffset: 0;"/>
  <path id="path-57" d="M765 648 C765 648 776.657 658.293 792 660 805.606 661.513 821.571 656.967 828.999 650.001 841.215 638.545 851.906 613.559 850.999 591.001 849.935 564.519 835.999 541.001 835.999 541.001" fill="none" stroke="#ffffff" stroke-width="6" stroke-opacity="1" stroke-linejoin="round" style="stroke-dasharray: 187, 189; stroke-dashoffset: 0;"/>
 </g>
 <g id="legs---m">
  <path id="path-58" d="M1501 1481 L1419 1891 1353 1892 1353 1222 1665 1221 1635 1892 1566 1892 1460 1224" fill="none" stroke="#ffffff" stroke-width="6" stroke-opacity="1" stroke-linejoin="round" style="stroke-dasharray: 2884, 2886; stroke-dashoffset: 0;"/>
  <path id="path-59" d="M1357 1917 L1357 1892 1409 1892 1411 1940 1297 1940 1297 1913 C1297 1913 1298.263 1906.381 1304 1903 1309.971 1899.481 1320.529 1899.19 1326 1899 1331.382 1898.814 1339.845 1899.953 1346 1903 1352.155 1906.047 1356 1911 1356 1911" fill="none" stroke="#ffffff" stroke-width="6" stroke-opacity="1" stroke-linejoin="round" style="stroke-dasharray: 335, 337; stroke-dashoffset: 0;"/>
  <path id="path-60" d="M1629 1901 L1629 1893 1577 1893 1581 1942 1672 1942 1671 1912 C1671 1912 1666.138 1906.482 1659 1903 1652.67 1899.912 1644.35 1898.797 1639 1899 1633.653 1899.203 1624.831 1902.42 1619 1906 1613.617 1909.304 1611 1913 1611 1913 L1613 1939" fill="none" stroke="#ffffff" stroke-width="6" stroke-opacity="1" stroke-linejoin="round" style="stroke-dasharray: 324, 326; stroke-dashoffset: 0;"/>
 </g>
 <g id="body---m">
  <path id="path-61" d="M1193.996 856.005 C1193.996 856.005 1191.922 864.631 1190.999 871.001 1189.851 878.947 1194.998 895.002 1194.998 895.002 1194.998 895.002 1212.708 955.877 1231 981 1236.426 988.454 1237.96 993.054 1251.999 999.001 1265.488 1004.709 1282.858 1005.423 1292.996 1001.005 1302.738 996.755 1322.913 981.299 1327.998 968.002 1333.968 952.393 1327.998 938.002 1327.998 938.002 L1285.998 846.002 1254.996 846.005" fill="none" stroke="#ffffff" stroke-width="6" stroke-opacity="1" stroke-linejoin="round" style="stroke-dasharray: 416, 418; stroke-dashoffset: 0;"/>
  <path id="path-62" d="M1343 1193 L1343 1223 1672 1220 1671 1194 1684 1193 1685 1030 C1685 1030 1706.656 1034.69 1717 1032 1721.188 1030.911 1727.239 1028.227 1732 1025 1739.447 1019.952 1745 1014 1745 1014 L1812 913 1721 853 1673 924" fill="none" stroke="#ffffff" stroke-width="6" stroke-opacity="1" stroke-linejoin="round" style="stroke-dasharray: 943, 945; stroke-dashoffset: 0;"/>
  <path id="path-63" d="M1747 834 L1733 693 C1733 693 1731.216 686.358 1727 679 1723.551 672.979 1718.068 666.438 1714 663 1710.662 660.179 1705.406 657.12 1700 655 1691.544 651.685 1683 650 1683 650 L1547 616 1549 1204 1671 1194" fill="none" stroke="#ffffff" stroke-width="6" stroke-opacity="1" stroke-linejoin="round" style="stroke-dasharray: 1063, 1065; stroke-dashoffset: 0;"/>
  <path id="path-64" d="M1544 621 L1530 617 C1530 617 1483.603 652.946 1459 646 1454.226 644.653 1444.651 641.598 1441 636 1435.523 627.603 1437 616 1437 616" fill="none" stroke="#ffffff" stroke-width="6" stroke-opacity="1" stroke-linejoin="round" style="stroke-dasharray: 135, 137; stroke-dashoffset: 0;"/>
  <path id="path-65" d="M1435 585 L1437 615" fill="none" stroke="#ffffff" stroke-width="6" stroke-opacity="1" stroke-linejoin="round" style="stroke-dasharray: 31, 33; stroke-dashoffset: 0;"/>
  <path id="path-66" d="M1518 524 L1528 617" fill="none" stroke="#ffffff" stroke-width="6" stroke-opacity="1" stroke-linejoin="round" style="stroke-dasharray: 94, 96; stroke-dashoffset: 0;"/>
  <path id="path-67" d="M1629 767 L1647 982 C1647 982 1647.686 990.543 1651 999 1653.119 1004.407 1657.169 1009.671 1660 1013 1662.872 1016.378 1668.004 1021.222 1673 1024 1678.633 1027.133 1686 1030 1686 1030" fill="none" stroke="#ffffff" stroke-width="6" stroke-opacity="1" stroke-linejoin="round" style="stroke-dasharray: 282, 284; stroke-dashoffset: 0;"/>
  <path id="path-68" d="M1548 748 L1619 636" fill="none" stroke="#ffffff" stroke-width="6" stroke-opacity="1" stroke-linejoin="round" style="stroke-dasharray: 133, 135; stroke-dashoffset: 0;"/>
  <path id="path-69" d="M1731 855 L1811.999 748 1821.999 714 C1821.999 714 1822.218 711.368 1823.999 709 1825.709 706.725 1828.941 704.704 1830.999 705 1832.9 705.274 1835.018 706.542 1835.999 709 1837.15 711.885 1836.999 716 1836.999 716 L1830.999 748 C1830.999 748 1830.82 751.293 1831.999 752 1833.177 752.707 1835.999 751 1835.999 751 L1860.999 717 C1860.999 717 1863.535 713.698 1866.999 712 1870.463 710.302 1874.855 710.208 1876.999 712 1878.813 713.517 1879.758 716.802 1878.999 720 1878.033 724.07 1874.999 728 1874.999 728 L1853.999 758 C1853.999 758 1851.685 761.974 1852.999 763 1854.082 763.846 1857.999 762 1857.999 762 L1882.999 743 C1882.999 743 1886.755 740.096 1891 739 1894.918 737.988 1899.272 738.673 1900.999 741 1902.39 742.876 1901.656 746.186 1899.999 749 1898.054 752.304 1894.999 755 1894.999 755 L1869.999 777 1855.999 794 1886.999 791 C1886.999 791 1889.665 791.938 1892 794 1894.155 795.904 1895.993 798.847 1896 801 1896.005 802.686 1895.638 804.413 1894 806 1891.738 808.192 1888 808 1888 808 L1839 815 1798.999 901" fill="none" stroke="#ffffff" stroke-width="6" stroke-opacity="1" stroke-linejoin="round" style="stroke-dasharray: 689, 691; stroke-dashoffset: 0;"/>
  <path id="path-70" d="M1419 745 L1352 646" fill="none" stroke="#ffffff" stroke-width="6" stroke-opacity="1" stroke-linejoin="round" style="stroke-dasharray: 120, 122; stroke-dashoffset: 0;"/>
  <path id="path-71" d="M1421 624 L1421 1204 1332 1192 1333 767" fill="none" stroke="#ffffff" stroke-width="6" stroke-opacity="1" stroke-linejoin="round" style="stroke-dasharray: 1095, 1097; stroke-dashoffset: 0;"/>
  <path id="path-72" d="M1436 616 L1332 650 C1332 650 1321.453 653.511 1311 660 1304.317 664.148 1297.549 670.27 1294 675 1290.245 680.005 1286.972 689.114 1285 697 1282.685 706.257 1282 714 1282 714 L1310 826 C1310 826 1311.316 835.935 1309 840 1306.786 843.886 1299 846 1299 846 L1255 847 1248 808 C1248 808 1243.483 797.771 1239 795 1234.99 792.522 1225 793 1225 793 L1202 797 C1202 797 1192.717 800.25 1190 804 1187.2 807.865 1187 818 1187 818 L1194 853 C1194 853 1197.058 860.459 1200 863 1203.279 865.833 1212 868 1212 868 L1240 863 C1240 863 1246.414 859.684 1249 857 1251.795 854.1 1255 847 1255 847" fill="none" stroke="#ffffff" stroke-width="6" stroke-opacity="1" stroke-linejoin="round" style="stroke-dasharray: 616, 618; stroke-dashoffset: 0;"/>
  <path id="path-73" d="M1215.998 792 L1198.998 723 C1198.998 723 1198.563 714.189 1200.998 711 1203.368 707.9 1210.998 707 1210.998 707 L1263.998 707 C1263.998 707 1271.15 708.816 1274 711 1276.645 713.028 1284 723 1284 723" fill="none" stroke="#ffffff" stroke-width="6" stroke-opacity="1" stroke-linejoin="round" style="stroke-dasharray: 174, 176; stroke-dashoffset: 0;"/>
 </g>
 <g id="head---m">
  <path id="path-74" d="M1390.995 505.003 C1390.995 505.003 1390.102 495.733 1392.995 487.003 1395.182 480.417 1400.37 474.241 1404.995 472.003 1429.891 459.958 1484.995 494.003 1484.995 494.003 1484.995 494.003 1496.849 482.965 1508.996 483.002 1517.438 483.028 1526.884 492.345 1528.996 498.002 1530.719 502.621 1530.19 514.472 1524.997 519.002 1517.524 525.522 1503.995 524.003 1503.995 524.003 1503.995 524.003 1505.076 535.856 1501.998 548.002 1499.377 558.349 1493.153 568.741 1486.997 574.002 1480.98 579.146 1469.424 585.987 1458.999 587.001 1446.257 588.24 1434.995 583.003 1434.995 583.003 1434.995 583.003 1427.637 580.992 1421 577 1414.363 573.008 1408.447 567.036 1404.999 562.001 1393.945 545.859 1390.995 505.003 1390.995 505.003 Z" fill="none" stroke="#ffffff" stroke-width="6" stroke-opacity="1" stroke-linejoin="round" style="stroke-dasharray: 428, 430; stroke-dashoffset: 0;"/>
  <path id="path-75" d="M1411 538 L1456 532 C1456 532 1455.057 544.668 1452 550 1450.733 552.21 1448.536 556.769 1446 559 1442.196 562.346 1438 563 1438 563 1438 563 1426.443 558.977 1422 555 1416.971 550.499 1411 538 1411 538 Z" fill="none" stroke="#ffffff" stroke-width="6" stroke-opacity="1" stroke-linejoin="round" style="stroke-dasharray: 123, 125; stroke-dashoffset: 0;"/>
  <path id="path-76" d="M1390.999 505.003 L1390.999 505.003 C1390.999 505.003 1384.394 505.713 1377.999 503.003 1373.175 500.956 1368.695 495.924 1365.999 493.003 1353.405 479.354 1346 441.003 1346 441.003 1346 441.003 1388.476 428.507 1409.999 424.002 1431.508 419.5 1474.999 414.003 1474.999 414.003 1474.999 414.003 1488.804 412.598 1501 417.001 1508.797 419.815 1515.458 426.936 1518.999 432.001 1523.659 438.667 1527.499 450.256 1527 461 1526.414 473.613 1520.999 485.003 1520.999 485.003" fill="none" stroke="#ffffff" stroke-width="6" stroke-opacity="1" stroke-linejoin="round" style="stroke-dasharray: 323, 325; stroke-dashoffset: 0;"/>
 </g>
</svg>